<svg width="297" height="100" viewBox="0 0 297 100" fill="none" xmlns="http://www.w3.org/2000/svg">
<path d="M106.624 57V55.464L111.376 54.792H112.288L117.472 55.464V57H106.624ZM109.936 57L121.888 21.288H126.064L138.256 57H131.296L121.168 25.512H122.176L122.032 26.184L112.336 57H109.936ZM115.264 45.432L115.6 43.848H130.816L131.152 45.432H115.264ZM125.728 57V55.416L132.208 54.744H134.656L141.328 55.416V57H125.728Z" fill="white"/>
<path d="M143.492 57V55.608L148.676 55.032H152.805L158.133 55.608V57H143.492ZM146.9 57C146.996 54.6 147.044 49.08 147.044 45.768V42.12C147.044 38.904 146.996 37.08 146.9 34.776L143.156 34.44V33.24L152.564 30.6L153.189 31.032L153.525 37.896V45.768C153.525 49.08 153.573 54.6 153.669 57H146.9ZM153.525 41.64L151.941 38.76H153.236C154.58 33.48 158.085 30.552 161.253 30.552C163.413 30.552 165.141 31.368 165.62 33.768C165.572 35.784 164.613 37.272 162.452 37.272C160.82 37.272 159.764 36.312 158.564 34.728L157.46 33.48L159.236 33.72C156.452 35.16 154.773 37.416 153.525 41.64Z" fill="white"/>
<path d="M179.659 57.816C172.411 57.816 166.747 53.064 166.747 44.568C166.747 35.448 173.131 30.552 180.667 30.552C185.563 30.552 189.451 33.576 190.171 37.704C189.739 39.24 188.827 39.96 187.387 39.96C185.611 39.96 184.219 38.952 184.027 36.072L183.163 31.56L186.427 33.672C184.603 32.616 183.067 32.136 181.387 32.136C176.923 32.136 173.563 36.408 173.563 43.704C173.563 50.712 177.067 54.744 182.395 54.744C185.179 54.744 187.531 53.496 189.307 51.192L190.171 51.816C187.915 55.848 184.795 57.816 179.659 57.816Z" fill="white"/>
<path d="M200.709 57.816C196.725 57.816 193.845 55.416 193.845 51.384C193.845 47.208 196.197 44.76 203.541 42.744C206.037 41.976 209.541 41.112 212.133 40.488V41.736C209.541 42.408 206.757 43.128 205.077 43.752C201.621 45.144 199.845 47.304 199.845 50.52C199.845 53.4 201.429 54.84 203.781 54.84C205.317 54.84 206.997 54.024 210.261 50.52L210.981 53.064H209.301C206.517 56.136 204.597 57.816 200.709 57.816ZM214.149 57.768C210.837 57.768 209.157 55.752 208.773 52.536V38.712C208.773 33.624 207.477 32.136 203.781 32.136C202.101 32.136 200.469 32.52 198.165 33.432L201.189 32.232L200.661 35.928C200.517 38.712 199.125 39.72 197.541 39.72C196.005 39.72 194.949 38.952 194.613 37.512C195.189 33.24 199.173 30.552 205.941 30.552C212.325 30.552 215.109 33.288 215.109 39.912V52.488C215.109 54.696 215.637 55.416 216.693 55.416C217.461 55.416 217.989 55.032 218.853 53.784L219.669 54.456C218.517 56.76 216.837 57.768 214.149 57.768Z" fill="white"/>
<path d="M232.723 57.816C226.483 57.816 221.731 52.728 221.731 44.376C221.731 35.832 227.059 30.552 233.395 30.552C236.611 30.552 239.155 31.992 241.315 35.256H241.795L240.979 36.072C239.203 34.2 237.571 33.48 235.747 33.48C231.859 33.48 228.643 36.168 228.643 44.184C228.643 51.816 231.571 54.792 235.507 54.792C237.523 54.792 239.155 54.072 240.835 52.2L241.747 53.16H241.267C239.107 56.136 236.179 57.816 232.723 57.816ZM240.595 57.576L240.115 53.112V35.064L240.355 34.536V21.144L236.275 20.856V19.56L246.019 17.736L246.739 18.168L246.595 25.704V55.368L250.147 55.608V57L240.595 57.576Z" fill="white"/>
<path d="M253.325 57V55.608L258.413 55.08H261.389L266.573 55.608V57H253.325ZM256.685 57C256.781 54.6 256.829 49.08 256.829 45.768V42.216C256.829 39.048 256.781 36.936 256.685 34.632L252.893 34.344V33.144L262.877 30.6L263.453 31.032L263.309 38.424V45.768C263.309 49.08 263.357 54.6 263.501 57H256.685ZM259.805 25.56C257.789 25.56 256.157 24.12 256.157 22.056C256.157 20.04 257.789 18.552 259.805 18.552C261.869 18.552 263.501 20.04 263.501 22.056C263.501 24.12 261.869 25.56 259.805 25.56Z" fill="white"/>
<path d="M277.116 57.816C273.132 57.816 270.251 55.416 270.251 51.384C270.251 47.208 272.604 44.76 279.948 42.744C282.444 41.976 285.947 41.112 288.539 40.488V41.736C285.947 42.408 283.163 43.128 281.483 43.752C278.027 45.144 276.251 47.304 276.251 50.52C276.251 53.4 277.836 54.84 280.188 54.84C281.724 54.84 283.404 54.024 286.668 50.52L287.388 53.064H285.707C282.923 56.136 281.004 57.816 277.116 57.816ZM290.556 57.768C287.243 57.768 285.564 55.752 285.18 52.536V38.712C285.18 33.624 283.884 32.136 280.188 32.136C278.508 32.136 276.875 32.52 274.572 33.432L277.595 32.232L277.068 35.928C276.923 38.712 275.532 39.72 273.948 39.72C272.411 39.72 271.355 38.952 271.02 37.512C271.595 33.24 275.579 30.552 282.348 30.552C288.732 30.552 291.516 33.288 291.516 39.912V52.488C291.516 54.696 292.043 55.416 293.099 55.416C293.867 55.416 294.395 55.032 295.259 53.784L296.076 54.456C294.923 56.76 293.243 57.768 290.556 57.768Z" fill="white"/>
<path d="M126 92L127.16 86.64L124.84 77.72H126.62L128.32 84.88L133 77.72H135.02L128.9 86.7L127.8 92H126Z" fill="white"/>
<path d="M137.14 92.16C136.313 92.16 135.6 91.9933 135 91.66C134.4 91.3267 133.94 90.8533 133.62 90.24C133.3 89.6133 133.14 88.88 133.14 88.04C133.14 87.3867 133.213 86.7333 133.36 86.08C133.506 85.4133 133.72 84.7867 134 84.2C134.293 83.6133 134.653 83.0933 135.08 82.64C135.506 82.1733 136.006 81.8067 136.58 81.54C137.153 81.2733 137.793 81.14 138.5 81.14C139.34 81.14 140.053 81.3067 140.64 81.64C141.24 81.9733 141.7 82.4533 142.02 83.08C142.34 83.6933 142.5 84.4267 142.5 85.28C142.5 85.9333 142.426 86.5867 142.28 87.24C142.133 87.8933 141.913 88.52 141.62 89.12C141.34 89.7067 140.986 90.2267 140.56 90.68C140.133 91.1333 139.633 91.4933 139.06 91.76C138.486 92.0267 137.846 92.16 137.14 92.16ZM137.24 90.7C137.626 90.7 137.986 90.62 138.32 90.46C138.666 90.3 138.986 90.0667 139.28 89.76C139.573 89.44 139.82 89.0533 140.02 88.6C140.233 88.1333 140.4 87.6067 140.52 87.02C140.64 86.4333 140.7 85.7867 140.7 85.08C140.7 84.68 140.626 84.2933 140.48 83.92C140.346 83.5333 140.12 83.22 139.8 82.98C139.48 82.7267 139.053 82.6 138.52 82.6C138.08 82.6 137.673 82.6933 137.3 82.88C136.926 83.0667 136.593 83.3333 136.3 83.68C136.006 84.0133 135.753 84.4133 135.54 84.88C135.34 85.3333 135.186 85.8333 135.08 86.38C134.973 86.9267 134.92 87.5 134.92 88.1C134.92 88.9267 135.12 89.5667 135.52 90.02C135.933 90.4733 136.506 90.7 137.24 90.7Z" fill="white"/>
<path d="M147.229 92.2C146.696 92.2 146.223 92.1 145.809 91.9C145.409 91.7 145.096 91.4 144.869 91C144.656 90.6 144.549 90.1133 144.549 89.54C144.549 89.2333 144.569 88.9467 144.609 88.68C144.663 88.4 144.716 88.1133 144.769 87.82L146.169 81.28H147.949L146.509 88.02C146.456 88.3133 146.409 88.5667 146.369 88.78C146.343 88.9933 146.329 89.1867 146.329 89.36C146.329 89.7867 146.436 90.1267 146.649 90.38C146.876 90.62 147.236 90.74 147.729 90.74C148.183 90.74 148.669 90.58 149.189 90.26C149.723 89.94 150.216 89.4267 150.669 88.72C151.123 88.0133 151.476 87.0733 151.729 85.9L152.709 81.28H154.449L152.169 92H150.729L150.949 90.02H150.849C150.596 90.34 150.296 90.6733 149.949 91.02C149.616 91.3533 149.223 91.6333 148.769 91.86C148.329 92.0867 147.816 92.2 147.229 92.2Z" fill="white"/>
<path d="M155.591 92L157.871 81.28H159.311L159.091 83.26H159.191C159.471 82.8867 159.765 82.54 160.071 82.22C160.378 81.8867 160.725 81.6133 161.111 81.4C161.498 81.1867 161.945 81.08 162.451 81.08C162.638 81.08 162.831 81.0933 163.031 81.12C163.245 81.1333 163.438 81.1667 163.611 81.22L163.231 82.8C163.058 82.76 162.885 82.7333 162.711 82.72C162.551 82.6933 162.385 82.68 162.211 82.68C161.718 82.68 161.258 82.8133 160.831 83.08C160.418 83.3333 160.045 83.6733 159.711 84.1C159.391 84.5267 159.118 85 158.891 85.52C158.665 86.04 158.498 86.5667 158.391 87.1L157.351 92H155.591Z" fill="white"/>
<path d="M174.935 92.2C173.802 92.2 172.835 91.98 172.035 91.54C171.249 91.0867 170.649 90.4467 170.235 89.62C169.835 88.78 169.635 87.7933 169.635 86.66C169.635 85.8333 169.709 85.04 169.855 84.28C170.002 83.5067 170.215 82.78 170.495 82.1C170.789 81.42 171.142 80.8 171.555 80.24C171.969 79.68 172.442 79.1933 172.975 78.78C173.522 78.3667 174.115 78.0533 174.755 77.84C175.409 77.6133 176.109 77.5 176.855 77.5C178.482 77.5 179.742 78 180.635 79C181.542 80 181.995 81.3733 181.995 83.12C181.995 83.9467 181.929 84.7467 181.795 85.52C181.662 86.28 181.462 87 181.195 87.68C180.929 88.3467 180.595 88.96 180.195 89.52C179.795 90.0667 179.335 90.54 178.815 90.94C178.295 91.34 177.709 91.6533 177.055 91.88C176.415 92.0933 175.709 92.2 174.935 92.2ZM174.995 90.62C175.529 90.62 176.022 90.5267 176.475 90.34C176.929 90.1533 177.342 89.8933 177.715 89.56C178.102 89.2267 178.442 88.8333 178.735 88.38C179.029 87.9133 179.275 87.4 179.475 86.84C179.675 86.2667 179.829 85.6667 179.935 85.04C180.042 84.4 180.095 83.7467 180.095 83.08C180.095 81.8133 179.795 80.8333 179.195 80.14C178.595 79.4333 177.775 79.08 176.735 79.08C176.202 79.08 175.702 79.1733 175.235 79.36C174.769 79.5333 174.342 79.7867 173.955 80.12C173.582 80.44 173.242 80.8333 172.935 81.3C172.629 81.7533 172.369 82.26 172.155 82.82C171.955 83.38 171.802 83.98 171.695 84.62C171.589 85.26 171.535 85.9267 171.535 86.62C171.535 87.46 171.675 88.18 171.955 88.78C172.235 89.3667 172.629 89.82 173.135 90.14C173.655 90.46 174.275 90.62 174.995 90.62Z" fill="white"/>
<path d="M186.309 92.2C185.589 92.2 184.983 92.0267 184.489 91.68C183.996 91.3333 183.749 90.7267 183.749 89.86C183.749 89.66 183.763 89.44 183.789 89.2C183.829 88.9467 183.876 88.6933 183.929 88.44L185.149 82.62H183.489L183.649 81.82L185.449 81.06L186.689 78.84H187.729L187.189 81.28H189.889L189.609 82.62H186.929L185.689 88.46C185.649 88.6333 185.609 88.8333 185.569 89.06C185.529 89.2733 185.509 89.4733 185.509 89.66C185.509 89.9667 185.589 90.2267 185.749 90.44C185.923 90.6533 186.196 90.76 186.569 90.76C186.809 90.76 187.043 90.74 187.269 90.7C187.496 90.6467 187.736 90.58 187.989 90.5V91.84C187.829 91.92 187.583 92 187.249 92.08C186.916 92.16 186.603 92.2 186.309 92.2Z" fill="white"/>
<path d="M193.11 92.2C192.537 92.2 192.03 92.0667 191.59 91.8C191.163 91.52 190.823 91.1067 190.57 90.56C190.33 90.0133 190.21 89.34 190.21 88.54C190.21 87.74 190.29 86.9733 190.45 86.24C190.623 85.4933 190.863 84.8067 191.17 84.18C191.477 83.5533 191.843 83.0133 192.27 82.56C192.71 82.0933 193.197 81.7333 193.73 81.48C194.277 81.2133 194.857 81.08 195.47 81.08C195.937 81.08 196.343 81.1667 196.69 81.34C197.05 81.5133 197.35 81.74 197.59 82.02C197.83 82.3 198.023 82.6067 198.17 82.94H198.27L198.91 81.28H200.25L197.97 92H196.57L196.83 90.02H196.75C196.443 90.4067 196.103 90.7667 195.73 91.1C195.357 91.4333 194.95 91.7 194.51 91.9C194.083 92.1 193.617 92.2 193.11 92.2ZM193.69 90.74C194.183 90.74 194.663 90.56 195.13 90.2C195.61 89.84 196.043 89.3533 196.43 88.74C196.817 88.1267 197.11 87.44 197.31 86.68C197.417 86.2933 197.483 85.94 197.51 85.62C197.55 85.2867 197.57 84.98 197.57 84.7C197.57 84.0733 197.397 83.56 197.05 83.16C196.703 82.76 196.237 82.56 195.65 82.56C195.237 82.56 194.843 82.6667 194.47 82.88C194.11 83.0933 193.777 83.3933 193.47 83.78C193.163 84.1533 192.903 84.5933 192.69 85.1C192.477 85.6067 192.31 86.16 192.19 86.76C192.07 87.3467 192.01 87.9533 192.01 88.58C192.01 89.3 192.157 89.84 192.45 90.2C192.743 90.56 193.157 90.74 193.69 90.74Z" fill="white"/>
<path d="M201.157 92L204.377 76.8H206.157L204.857 82.84C204.631 83.9067 204.431 84.7333 204.257 85.32C204.097 85.8933 203.984 86.2733 203.917 86.46H203.957L209.037 81.28H211.117L206.517 85.88L209.377 92H207.437L205.177 86.98L203.737 88.12L202.937 92H201.157Z" fill="white"/>
<path d="M214.3 92.2C213.766 92.2 213.293 92.1 212.88 91.9C212.48 91.7 212.166 91.4 211.94 91C211.726 90.6 211.62 90.1133 211.62 89.54C211.62 89.2333 211.64 88.9467 211.68 88.68C211.733 88.4 211.786 88.1133 211.84 87.82L213.24 81.28H215.02L213.58 88.02C213.526 88.3133 213.48 88.5667 213.44 88.78C213.413 88.9933 213.4 89.1867 213.4 89.36C213.4 89.7867 213.506 90.1267 213.72 90.38C213.946 90.62 214.306 90.74 214.8 90.74C215.253 90.74 215.74 90.58 216.26 90.26C216.793 89.94 217.286 89.4267 217.74 88.72C218.193 88.0133 218.546 87.0733 218.8 85.9L219.78 81.28H221.52L219.24 92H217.8L218.02 90.02H217.92C217.666 90.34 217.366 90.6733 217.02 91.02C216.686 91.3533 216.293 91.6333 215.84 91.86C215.4 92.0867 214.886 92.2 214.3 92.2Z" fill="white"/>
<path d="M230.997 92.2C230.304 92.2 229.69 92.1467 229.157 92.04C228.637 91.9333 228.144 91.7733 227.677 91.56V89.8C227.944 89.9333 228.244 90.0667 228.577 90.2C228.91 90.3333 229.277 90.44 229.677 90.52C230.09 90.6 230.537 90.64 231.017 90.64C231.47 90.64 231.897 90.5933 232.297 90.5C232.697 90.3933 233.05 90.2333 233.357 90.02C233.664 89.7933 233.904 89.5133 234.077 89.18C234.264 88.8467 234.357 88.4533 234.357 88C234.357 87.64 234.277 87.32 234.117 87.04C233.97 86.76 233.724 86.4867 233.377 86.22C233.03 85.94 232.57 85.64 231.997 85.32C231.49 85.0133 231.037 84.7 230.637 84.38C230.25 84.0467 229.944 83.6667 229.717 83.24C229.504 82.8 229.397 82.2733 229.397 81.66C229.397 80.9933 229.517 80.4067 229.757 79.9C230.01 79.3933 230.35 78.96 230.777 78.6C231.217 78.24 231.717 77.9733 232.277 77.8C232.85 77.6133 233.457 77.52 234.097 77.52C234.844 77.52 235.497 77.5933 236.057 77.74C236.63 77.8867 237.17 78.0933 237.677 78.36L236.997 79.88C236.65 79.6933 236.217 79.52 235.697 79.36C235.177 79.1867 234.644 79.1 234.097 79.1C233.684 79.1 233.304 79.1533 232.957 79.26C232.624 79.3667 232.33 79.5267 232.077 79.74C231.837 79.9533 231.644 80.2133 231.497 80.52C231.364 80.8133 231.297 81.1533 231.297 81.54C231.297 81.94 231.37 82.28 231.517 82.56C231.664 82.8267 231.89 83.0733 232.197 83.3C232.504 83.5133 232.884 83.76 233.337 84.04C233.91 84.3867 234.41 84.7267 234.837 85.06C235.277 85.3933 235.617 85.78 235.857 86.22C236.11 86.66 236.237 87.2067 236.237 87.86C236.237 88.58 236.11 89.2133 235.857 89.76C235.617 90.2933 235.264 90.74 234.797 91.1C234.344 91.46 233.79 91.7333 233.137 91.92C232.497 92.1067 231.784 92.2 230.997 92.2Z" fill="white"/>
<path d="M236.955 96.8L240.235 81.28H241.675L241.435 83.28H241.515C241.835 82.88 242.175 82.52 242.535 82.2C242.895 81.8667 243.288 81.6 243.715 81.4C244.141 81.2 244.601 81.1 245.095 81.1C245.668 81.1 246.168 81.24 246.595 81.52C247.035 81.7867 247.375 82.1933 247.615 82.74C247.868 83.2733 247.995 83.9467 247.995 84.76C247.995 85.5467 247.915 86.3067 247.755 87.04C247.608 87.7733 247.381 88.4533 247.075 89.08C246.781 89.6933 246.421 90.24 245.995 90.72C245.581 91.1867 245.101 91.5533 244.555 91.82C244.008 92.0733 243.415 92.2 242.775 92.2C242.295 92.2 241.875 92.1133 241.515 91.94C241.168 91.7667 240.875 91.54 240.635 91.26C240.395 90.98 240.195 90.68 240.035 90.36H239.935C239.921 90.5733 239.888 90.8733 239.835 91.26C239.781 91.6333 239.728 91.94 239.675 92.18L238.695 96.8H236.955ZM242.635 90.74C243.061 90.74 243.455 90.6333 243.815 90.42C244.188 90.1933 244.521 89.8867 244.815 89.5C245.108 89.1 245.355 88.6467 245.555 88.14C245.768 87.62 245.928 87.0733 246.035 86.5C246.141 85.9133 246.195 85.32 246.195 84.72C246.195 84 246.048 83.46 245.755 83.1C245.475 82.74 245.055 82.56 244.495 82.56C244.201 82.56 243.901 82.6333 243.595 82.78C243.288 82.9267 242.988 83.14 242.695 83.42C242.401 83.6867 242.128 84.0067 241.875 84.38C241.621 84.7533 241.395 85.1667 241.195 85.62C241.008 86.06 240.861 86.5333 240.755 87.04C240.648 87.5333 240.595 88.0467 240.595 88.58C240.595 89.22 240.761 89.74 241.095 90.14C241.428 90.54 241.941 90.74 242.635 90.74Z" fill="white"/>
<path d="M252.837 92.2C252.263 92.2 251.757 92.0667 251.317 91.8C250.89 91.52 250.55 91.1067 250.297 90.56C250.057 90.0133 249.937 89.34 249.937 88.54C249.937 87.74 250.017 86.9733 250.177 86.24C250.35 85.4933 250.59 84.8067 250.897 84.18C251.203 83.5533 251.57 83.0133 251.997 82.56C252.437 82.0933 252.923 81.7333 253.457 81.48C254.003 81.2133 254.583 81.08 255.197 81.08C255.663 81.08 256.07 81.1667 256.417 81.34C256.777 81.5133 257.077 81.74 257.317 82.02C257.557 82.3 257.75 82.6067 257.897 82.94H257.997L258.637 81.28H259.977L257.697 92H256.297L256.557 90.02H256.477C256.17 90.4067 255.83 90.7667 255.457 91.1C255.083 91.4333 254.677 91.7 254.237 91.9C253.81 92.1 253.343 92.2 252.837 92.2ZM253.417 90.74C253.91 90.74 254.39 90.56 254.857 90.2C255.337 89.84 255.77 89.3533 256.157 88.74C256.543 88.1267 256.837 87.44 257.037 86.68C257.143 86.2933 257.21 85.94 257.237 85.62C257.277 85.2867 257.297 84.98 257.297 84.7C257.297 84.0733 257.123 83.56 256.777 83.16C256.43 82.76 255.963 82.56 255.377 82.56C254.963 82.56 254.57 82.6667 254.197 82.88C253.837 83.0933 253.503 83.3933 253.197 83.78C252.89 84.1533 252.63 84.5933 252.417 85.1C252.203 85.6067 252.037 86.16 251.917 86.76C251.797 87.3467 251.737 87.9533 251.737 88.58C251.737 89.3 251.883 89.84 252.177 90.2C252.47 90.56 252.883 90.74 253.417 90.74Z" fill="white"/>
<path d="M265.284 92.2C264.497 92.2 263.804 92.0533 263.204 91.76C262.604 91.4667 262.137 91.0267 261.804 90.44C261.47 89.84 261.304 89.0933 261.304 88.2C261.304 87.4267 261.384 86.6933 261.544 86C261.717 85.2933 261.964 84.64 262.284 84.04C262.604 83.44 262.99 82.92 263.444 82.48C263.897 82.04 264.41 81.7 264.984 81.46C265.57 81.2067 266.21 81.08 266.904 81.08C267.37 81.08 267.837 81.1267 268.304 81.22C268.77 81.3133 269.19 81.44 269.564 81.6L269.064 83.06C268.797 82.94 268.477 82.8267 268.104 82.72C267.744 82.6133 267.35 82.56 266.924 82.56C266.47 82.56 266.044 82.66 265.644 82.86C265.257 83.0467 264.904 83.3133 264.584 83.66C264.277 84.0067 264.01 84.42 263.784 84.9C263.57 85.3667 263.404 85.88 263.284 86.44C263.164 86.9867 263.104 87.5667 263.104 88.18C263.104 88.7133 263.197 89.1733 263.384 89.56C263.57 89.9467 263.837 90.24 264.184 90.44C264.544 90.64 264.97 90.74 265.464 90.74C265.93 90.74 266.37 90.6733 266.784 90.54C267.21 90.4067 267.63 90.2533 268.044 90.08V91.56C267.67 91.7467 267.25 91.9 266.784 92.02C266.33 92.14 265.83 92.2 265.284 92.2Z" fill="white"/>
<path d="M274.246 92.2C273.42 92.2 272.713 92.04 272.126 91.72C271.553 91.3867 271.113 90.92 270.806 90.32C270.513 89.7067 270.366 88.9867 270.366 88.16C270.366 87.3067 270.486 86.4667 270.726 85.64C270.98 84.8 271.34 84.04 271.806 83.36C272.273 82.6667 272.833 82.1133 273.486 81.7C274.153 81.2867 274.9 81.08 275.726 81.08C276.74 81.08 277.5 81.3 278.006 81.74C278.526 82.18 278.786 82.7933 278.786 83.58C278.786 84.1 278.666 84.5933 278.426 85.06C278.186 85.5133 277.813 85.9133 277.306 86.26C276.8 86.6067 276.153 86.88 275.366 87.08C274.58 87.2667 273.633 87.36 272.526 87.36H272.186C272.173 87.48 272.16 87.6067 272.146 87.74C272.146 87.8733 272.146 87.9933 272.146 88.1C272.146 88.9133 272.346 89.56 272.746 90.04C273.146 90.5067 273.753 90.74 274.566 90.74C275.073 90.74 275.553 90.6667 276.006 90.52C276.46 90.3733 276.953 90.1733 277.486 89.92V91.42C276.98 91.6467 276.48 91.8333 275.986 91.98C275.506 92.1267 274.926 92.2 274.246 92.2ZM272.586 85.94C273.386 85.94 274.126 85.8733 274.806 85.74C275.486 85.5933 276.033 85.36 276.446 85.04C276.86 84.7067 277.066 84.2667 277.066 83.72C277.066 83.3733 276.946 83.0933 276.706 82.88C276.48 82.6533 276.12 82.54 275.626 82.54C275.2 82.54 274.78 82.6733 274.366 82.94C273.953 83.2067 273.58 83.5933 273.246 84.1C272.913 84.6067 272.646 85.22 272.446 85.94H272.586Z" fill="white"/>
<path d="M40.4871 87.5476C62.8474 87.5476 80.9741 69.4209 80.9741 47.0605C80.9741 24.7001 62.8474 6.57345 40.4871 6.57345C18.1267 6.57345 0 24.7001 0 47.0605C0 69.4209 18.1267 87.5476 40.4871 87.5476Z" fill="#E5BDD9"/>
<path d="M74.5701 35.6882C76.5646 35.4949 78.5119 35.3098 80.4731 35.4481C82.1964 35.5696 83.6221 36.3028 84.8371 37.5088C86.1801 38.8417 86.9345 40.4303 86.9968 42.3286C87.0449 43.794 86.5441 45.0967 85.701 46.2604C84.4096 48.0429 82.6601 49.2539 80.643 50.075C79.1956 50.6643 77.7105 51.1447 76.1594 51.4064C74.2377 51.7307 72.3816 51.552 70.5091 50.9913C68.433 50.3697 66.5901 49.3176 64.7439 48.2446C64.6196 48.1722 64.4976 48.0955 64.282 47.9648C64.5515 48.5534 64.7815 49.0423 65.0005 49.5362C65.8462 51.4436 66.383 53.445 66.8046 55.4814C67.5895 59.2731 67.6505 63.1125 67.5663 66.9617C67.5482 67.7861 67.4533 68.6041 67.3679 69.4227C67.3429 69.6623 67.3172 69.8579 67.6036 70.0123C67.9827 70.2166 68.0604 70.6819 67.8388 71.1316C67.7626 71.2862 67.7632 71.3955 67.8506 71.5383C68.0707 71.898 68.1134 72.3155 68.1618 72.7179C68.2867 73.7589 68.3084 74.8116 68.5139 75.8439C68.553 76.0402 68.384 76.055 68.2595 76.1355C68.1304 75.8997 68.1678 75.6268 68.0636 75.3682C67.9547 75.6813 68.1212 75.997 67.9766 76.2777C67.9492 76.3311 67.8706 76.359 67.7376 76.3264C67.7376 75.6444 67.7376 74.9508 67.7376 74.2571C67.7052 74.2563 67.6726 74.2554 67.6401 74.2544C67.5914 74.9117 67.5319 75.5684 67.4993 76.2263C67.4873 76.4688 67.4316 76.6002 67.1424 76.5347C67.1424 76.1842 67.1424 75.8336 67.1424 75.4827C67.1301 75.4823 67.1179 75.4816 67.1057 75.4812C67.0687 75.8507 67.0318 76.2203 66.9933 76.6075C66.8974 76.6277 66.8001 76.6483 66.6757 76.6745C66.6032 75.2967 66.9422 73.9595 66.9199 72.6006C66.747 73.2876 66.6755 73.9887 66.5828 74.689C66.4945 75.3551 66.5308 76.0477 66.2559 76.6842C66.1653 74.9643 66.3083 73.2736 66.8295 71.5956C66.3942 71.4262 66.1924 71.1129 66.246 70.6377C66.2705 70.4208 66.3242 70.2252 66.5035 70.1002C66.7273 69.9443 66.7816 69.7175 66.7951 69.4774C66.8568 68.3807 66.9227 67.286 66.8956 66.1839C66.8518 64.3975 66.8194 62.6108 66.712 60.827C66.5705 58.4764 66.2503 56.149 65.712 53.8395C66.1241 60.7853 64.6041 67.3012 61.4096 73.4744C61.5771 73.6698 61.6813 73.9103 61.6557 74.205C61.628 74.523 61.4865 74.7788 61.1882 74.8569C60.8871 74.936 60.7308 75.1307 60.594 75.3663C59.9397 76.4924 59.5222 77.702 59.3034 78.9853C59.2725 79.1668 59.3468 79.4939 58.9205 79.423C59.0028 78.922 59.0844 78.4249 59.166 77.9277C58.9467 78.357 58.8765 78.8264 58.7829 79.2858C58.7369 79.5102 58.6416 79.5377 58.4258 79.4887C58.5995 78.1479 59.0182 76.8888 59.7003 75.6528C59.4213 75.8604 58.9663 76.5291 58.7827 76.9938C58.49 77.7349 58.1816 78.4721 58.1288 79.2836C58.1161 79.4767 58.051 79.6498 57.7669 79.5334C57.8966 78.1983 58.3549 76.9777 59.0112 75.8209C58.1226 76.8965 57.7828 78.2015 57.4721 79.5254C57.3171 79.5602 57.2142 79.511 57.2587 79.3382C57.6501 77.8146 57.9752 76.2592 59.1821 75.106C59.2978 74.9954 59.4063 74.8711 59.5388 74.785C59.8888 74.5576 60.2476 74.3622 60.1684 73.833C60.1463 73.6849 60.2839 73.4815 60.4617 73.4446C60.7946 73.3756 60.8863 73.125 61.0143 72.8669C62.3903 70.0924 63.3436 67.1672 64.0759 64.1699C64.4727 62.5451 64.5987 60.8733 64.742 59.2097C64.9189 57.1523 64.9295 55.0923 64.8154 53.0303C64.7108 51.1356 64.2899 49.3256 63.3966 47.6418C63.1243 47.1283 62.761 46.666 62.4185 46.2019C61.7216 45.2579 61.4236 44.2042 61.3815 43.0648C61.3033 40.9472 61.7657 38.9106 62.3772 36.9032C63.3648 33.6625 64.9378 30.7257 67.0447 28.0779C68.2318 26.5859 69.5788 25.2743 71.3973 24.5555C71.9885 24.3219 72.5983 24.1677 73.2387 24.2705C74.2005 24.4254 74.7904 25.0509 75.1866 25.8867C75.623 26.8071 75.7568 27.8026 75.8807 28.8012C76.1749 31.17 75.6511 33.384 74.639 35.5095C74.615 35.5604 74.5987 35.6137 74.5701 35.6882ZM63.5959 46.6392C64.072 47.0244 64.5337 47.2752 64.9883 47.5308C66.7277 48.5089 68.4248 49.5728 70.3699 50.1313C71.5225 50.4622 72.6593 50.8382 73.8818 50.8256C76.3048 50.8004 78.5664 50.1178 80.7517 49.1446C82.3309 48.4413 83.6943 47.4294 84.8021 46.0935C86.7307 43.7685 86.5744 40.795 84.9005 38.7487C83.7553 37.3488 82.3723 36.3605 80.5184 36.2132C78.4672 36.0504 76.4252 36.2016 74.3908 36.4806C74.2089 36.5055 74.0884 36.5841 73.9937 36.755C72.3303 39.7584 70.2057 42.3903 67.6051 44.6341C66.7906 45.337 65.9636 46.0271 64.9675 46.4695C64.5575 46.6516 64.1351 46.7856 63.5959 46.6392ZM62.7795 45.2109C62.8587 44.1823 63.2817 43.2729 63.8858 42.4594C66.2742 39.2426 69.4562 37.1632 73.2649 36.0053C73.511 35.9306 73.6695 35.8177 73.791 35.5864C74.9343 33.4108 75.5414 31.1301 75.1879 28.6549C75.0606 27.7631 74.9452 26.8663 74.5134 26.054C74.2233 25.5081 73.8312 25.0846 73.1835 24.9725C72.5264 24.8589 71.9404 25.0928 71.3728 25.3614C69.7229 26.1425 68.497 27.423 67.4254 28.8508C64.5008 32.7473 62.677 37.0967 62.1623 41.9621C62.0558 42.9681 62.1183 43.9714 62.4513 44.9412C62.5009 45.0846 62.5205 45.2708 62.7795 45.2109ZM73.0435 36.8675C72.9037 36.8948 72.8472 36.898 72.7965 36.9167C69.8425 38.007 67.2289 39.6096 65.159 42.0205C64.4858 42.8047 63.8908 43.6422 63.6165 44.6605C63.5369 44.9558 63.4529 45.2545 63.56 45.5685C63.6616 45.8661 63.8429 45.9904 64.1592 45.9189C64.661 45.8053 65.0909 45.544 65.4955 45.2483C67.8231 43.5471 69.8301 41.524 71.5188 39.1876C72.046 38.4577 72.5562 37.7156 73.0435 36.8675ZM66.6622 70.6806C66.6459 70.9581 66.7449 71.1299 67.0434 71.1324C67.326 71.1348 67.5012 70.9742 67.5061 70.7029C67.5113 70.4148 67.3451 70.2883 67.0801 70.284C66.817 70.2799 66.6321 70.3783 66.6622 70.6806ZM60.4753 74.1631C60.5161 74.4118 60.6456 74.5782 60.9018 74.5569C61.1519 74.5361 61.3214 74.3924 61.3042 74.1126C61.2889 73.862 61.162 73.7066 60.896 73.7212C60.6226 73.736 60.5098 73.9164 60.4753 74.1631Z" fill="#4C1C3C"/>
<path d="M18.5945 91.2907C18.4863 91.3294 18.3927 91.3629 18.2786 91.4035C17.952 90.8202 17.8126 90.1758 17.5977 89.5582C17.6063 90.2043 17.7811 90.8142 17.9917 91.4176C17.8113 91.5907 17.7091 91.5336 17.6168 91.3261C17.3011 90.6171 17.2011 89.8595 17.0958 89.1023C17.0885 89.0494 17.0812 88.9966 17.0484 88.9481C17.0473 89.8412 17.2743 90.6937 17.5376 91.5306C17.3634 91.7062 17.1684 91.4741 16.9794 91.5956C16.9258 91.6302 16.8302 91.3446 16.7711 91.202C16.3938 90.2904 16.0902 89.36 16.1361 88.3537C16.1434 88.1943 16.1718 88.0363 16.183 87.877C16.2096 87.4958 16.4589 87.1024 16.1117 86.739C16.0668 86.692 16.0462 86.5627 16.078 86.511C16.422 85.952 16.082 85.4304 15.9749 84.9124C15.6002 83.1026 15.5512 81.2812 15.6818 79.4475C15.9251 76.0356 16.7978 72.7402 17.5408 69.4212C17.765 68.4196 18.016 67.424 18.2511 66.4249C18.2675 66.3557 18.2533 66.2793 18.2533 66.1208C17.9091 66.7899 17.6024 67.3873 17.2043 67.9302C16.1342 69.3892 14.8479 70.61 13.2562 71.4874C12.649 71.8222 12.0013 72.062 11.2931 71.9989C10.2288 71.9042 9.66039 71.2104 9.33119 70.276C8.88624 69.0142 8.81623 67.7041 8.87851 66.3815C8.91952 65.5105 9.06791 64.6565 9.31852 63.7696C8.87443 63.9029 8.45998 64.0378 8.04015 64.152C6.456 64.5834 4.85488 64.7741 3.22306 64.4585C2.71691 64.3605 2.22708 64.2111 1.7699 63.9667C0.618022 63.351 0.102211 62.2329 0.430551 60.9618C1.05695 58.5361 2.48757 56.6854 4.54501 55.29C6.65356 53.8601 8.99232 53.0398 11.4917 52.6309C13.5045 52.3017 15.4992 52.3148 17.4678 52.9081C17.7963 53.0071 18.1103 53.1409 18.4159 53.2992C19.1378 53.6735 19.5546 54.3119 19.738 55.0513C20.0376 56.2583 20.2115 57.4836 20.1334 58.748C19.8647 63.0972 20.0782 67.4453 20.256 71.7915C20.3702 74.5823 20.6934 77.3554 21.1633 80.1087C21.6271 82.8275 22.3991 85.4596 23.4883 87.9961C23.5063 88.038 23.5145 88.0971 23.5469 88.1181C24.4293 88.6947 24.5285 89.667 24.7615 90.5595C25.0114 91.5175 25.2047 92.4903 25.5348 93.4366C25.3198 93.5414 25.1115 93.3913 24.8957 93.451C24.7336 93.4959 24.7278 93.2949 24.7016 93.1824C24.4778 92.2165 24.2609 91.2488 24.0415 90.2821C24.0116 90.1511 23.9785 90.0209 23.921 89.8966C24.0509 91.0912 24.3238 92.2564 24.658 93.4094C24.3941 93.5026 24.3069 93.3731 24.2482 93.171C23.9238 92.0528 23.6921 90.9171 23.5821 89.757C23.5772 89.704 23.5649 89.6516 23.5271 89.6043C23.4449 90.8971 23.8022 92.1293 24.0681 93.369C23.8188 93.4435 23.6938 93.3688 23.6339 93.1461C23.3455 92.0739 23.0843 90.9976 23.1488 89.8747C23.1636 89.6166 23.1958 89.3759 23.0109 89.148C22.8919 89.0016 22.8812 88.7744 22.9763 88.624C23.1082 88.416 23.038 88.2719 22.9381 88.0986C21.6578 85.873 20.9724 83.4389 20.475 80.9466C19.6279 76.7016 19.2843 72.4061 19.2557 68.0822C19.2521 67.5359 19.2553 66.9894 19.1857 66.4343C18.995 67.2134 18.7936 67.9901 18.6156 68.7722C18.0686 71.173 17.4487 73.5579 17.002 75.9807C16.5422 78.4743 16.2646 80.9842 16.4883 83.5246C16.5534 84.2639 16.6605 84.9994 16.7503 85.7366C16.7568 85.7901 16.763 85.8704 16.7967 85.8893C17.121 86.071 17.1313 86.4086 17.2704 86.6985C17.6597 87.5089 17.7141 88.3891 17.9496 89.2279C18.144 89.9176 18.2986 90.619 18.5945 91.2907ZM18.5264 53.9185C17.6151 53.4181 16.7013 53.2908 15.7853 53.1875C14.444 53.0363 13.1139 53.1465 11.7876 53.3776C9.02861 53.8584 6.49616 54.8558 4.2987 56.6247C2.85177 57.7894 1.80447 59.2316 1.32646 61.0449C1.03269 62.1592 1.41643 62.9022 2.48155 63.3558C3.15391 63.642 3.86621 63.747 4.58968 63.7618C6.32329 63.7975 7.95275 63.3231 9.55473 62.7221C9.68336 62.6737 9.7538 62.587 9.80362 62.4641C11.0459 59.3929 13.1953 57.063 15.8261 55.1352C16.6105 54.5608 17.4315 54.0351 18.5264 53.9185ZM19.2003 56.7999C18.5056 57.8966 17.6894 58.8238 16.7155 59.5913C14.8958 61.0256 12.9114 62.1981 10.8011 63.1539C10.5833 63.2527 10.4665 63.3841 10.3905 63.6057C9.86997 65.1216 9.72889 66.683 9.83798 68.2697C9.88951 69.0204 9.98615 69.7692 10.3551 70.4513C10.6396 70.9772 11.0654 71.2422 11.6682 71.1966C12.4022 71.1412 13.0181 70.7858 13.6058 70.3892C15.5649 69.0677 17.0031 67.3289 17.8526 65.1055C18.8022 62.6201 19.4507 60.0848 19.2941 57.3954C19.2836 57.2131 19.2901 57.0292 19.2003 56.7999ZM11.0334 62.0832C11.8593 61.7151 12.583 61.3106 13.2945 60.8845C14.7951 59.9856 16.3264 59.1202 17.5077 57.7933C18.1798 57.0385 19.0002 56.3638 19.0472 55.2164C19.0614 54.8702 18.8891 54.581 18.5226 54.5539C18.1882 54.5292 17.8994 54.666 17.6134 54.8105C16.5794 55.333 15.7339 56.1033 14.8921 56.8787C13.294 58.3501 11.9721 60.0264 11.0334 62.0832ZM23.5536 88.5869C23.4041 88.6105 23.3399 88.685 23.353 88.8218C23.368 88.9792 23.4215 89.1276 23.6002 89.1246C23.7327 89.1222 23.7634 88.9852 23.7623 88.8693C23.7608 88.7222 23.7017 88.6101 23.5536 88.5869ZM16.6773 89.6632C16.6298 89.1061 16.5824 88.5491 16.5349 87.9923C16.4389 88.5622 16.5197 89.116 16.6773 89.6632ZM16.5998 86.2857C16.4138 86.5013 16.5143 86.6478 16.6554 86.7764C16.7237 86.8387 16.8278 86.8219 16.8549 86.7358C16.9219 86.5226 16.7752 86.4116 16.5998 86.2857Z" fill="#4C1C3C"/>
<path d="M17.7491 47.4975C19.8009 48.3962 21 51.0373 20.2087 52.7188C18.1695 50.5374 15.6326 49.3355 12.7194 48.88C13.5481 47.5102 15.8267 46.6555 17.7491 47.4975Z" fill="#E8C152"/>
<path d="M19.3392 54.3922C18.3439 55.604 16.3249 56.1972 14.8814 55.702C14.6868 55.6352 14.6093 55.5295 14.5868 55.3427C14.5468 55.0124 14.5743 54.6847 14.6093 54.3568C14.6291 54.1721 14.757 54.0995 14.9095 54.024C15.4743 53.7433 15.7058 53.1102 15.4638 52.5483C15.2009 51.9375 14.4895 51.6302 13.8639 51.857C13.302 52.061 12.9833 52.6951 13.151 53.2767C13.1637 53.3205 13.1665 53.3789 13.1963 53.4042C13.7085 53.8363 13.4244 54.3886 13.4323 54.9755C12.2248 53.9398 11.6738 52.6988 11.7638 51.1795C11.7732 51.0214 11.8073 50.8638 11.8408 50.7081C11.9428 50.2318 11.945 50.2293 12.455 50.2316C13.6567 50.2374 14.7611 50.5924 15.8273 51.1279C16.8647 51.6489 17.8038 52.2951 18.6188 53.1212C18.8923 53.3984 19.1251 53.7087 19.3403 54.0328C19.4208 54.1539 19.4586 54.2469 19.3392 54.3922Z" fill="#E8C152"/>
<path d="M19.8791 54.5024C19.8009 54.0821 19.5494 53.7822 19.3115 53.4811C18.2642 52.1557 16.9272 51.2226 15.3813 50.5595C14.6499 50.2458 13.8981 50.0465 13.1132 49.9385C12.5731 49.8642 12.0455 49.9295 11.5256 50.0493C11.2411 50.115 11.2172 50.0093 11.2793 49.7918C11.3579 49.5159 11.5688 49.4033 11.832 49.3488C12.6182 49.1856 13.4074 49.227 14.1646 49.445C15.7296 49.8953 17.1929 50.5795 18.5047 51.557C19.1086 52.0071 19.6613 52.5154 20.0854 53.1469C20.2132 53.3372 20.3266 53.5367 20.3753 53.7643C20.4556 54.1384 20.2987 54.3819 19.8791 54.5024Z" fill="#E8C152"/>
<path d="M11.427 50.3807C11.1813 50.2769 10.9297 50.1483 10.9413 49.8401C10.9548 49.4802 11.1453 49.1568 11.4944 49.0961C12.0057 49.007 12.2261 48.6258 12.5364 48.3037C13.7469 47.0464 15.2136 46.5127 16.9506 46.8572C19.6007 47.3829 21.0485 49.5659 20.8308 51.9451C20.8183 52.0808 20.8153 52.2225 20.7728 52.3496C20.6012 52.8622 20.5503 53.355 20.7006 53.9026C20.828 54.3671 20.3757 54.7676 19.8657 54.7352C19.6802 54.7234 19.5546 54.7721 19.4161 54.8993C17.8504 56.3365 16.0684 56.6324 14.1143 55.8349C12.2752 55.0844 11.0712 52.9445 11.3381 50.9645C11.3634 50.7736 11.3959 50.5836 11.427 50.3807ZM13.4495 54.9506C13.4415 54.3637 13.7256 53.8114 13.2134 53.3793C13.1836 53.3542 13.1808 53.2956 13.1681 53.2518C13.0004 52.6702 13.3191 52.0359 13.8811 51.8321C14.5066 51.6051 15.2181 51.9124 15.4809 52.5234C15.7227 53.0853 15.4914 53.7182 14.9267 53.9991C14.7742 54.0749 14.646 54.1472 14.6265 54.3319C14.5915 54.66 14.564 54.9875 14.6039 55.318C14.6265 55.5048 14.7042 55.6107 14.8985 55.6773C16.3422 56.1725 18.3612 55.5794 19.3564 54.3676C19.4758 54.2222 19.438 54.129 19.3572 54.0077C19.1421 53.6836 18.9093 53.3735 18.6357 53.0961C17.8207 52.2702 16.8817 51.624 15.8443 51.1028C14.7781 50.5673 13.6734 50.2125 12.4719 50.2065C11.9619 50.2039 11.9598 50.2067 11.8578 50.683C11.8245 50.8385 11.7901 50.9961 11.7807 51.1544C11.6909 52.6739 12.2422 53.9151 13.4495 54.9506ZM20.2259 52.6941C21.0174 51.0126 19.8181 48.3715 17.7662 47.4728C15.8438 46.6308 13.5652 47.4855 12.7363 48.8553C15.6499 49.3108 18.1867 50.5127 20.2259 52.6941ZM19.8964 54.4775C20.316 54.357 20.4728 54.1135 20.3927 53.7394C20.344 53.5118 20.2306 53.3123 20.1028 53.1221C19.6789 52.4903 19.1259 51.982 18.5221 51.5321C17.2102 50.5544 15.747 49.8704 14.1822 49.4201C13.425 49.2022 12.6358 49.1607 11.8496 49.3239C11.5861 49.3787 11.3755 49.491 11.2969 49.7669C11.2348 49.9847 11.2587 50.0901 11.5432 50.0244C12.0631 49.9044 12.5907 49.8393 13.1308 49.9136C13.9154 50.0216 14.6673 50.2209 15.3989 50.5346C16.9448 51.1978 18.282 52.1308 19.3291 53.4562C19.5668 53.7573 19.8183 54.0575 19.8964 54.4775Z" fill="#59304D"/>
<path d="M69.0015 43.5403C66.616 43.9133 64.5388 44.8974 62.8689 46.6834C62.2208 45.3065 63.2029 43.1441 64.8828 42.4081C66.4571 41.7188 68.323 42.4185 69.0015 43.5403Z" fill="#E8C152"/>
<path d="M63.5802 47.7593C63.7563 47.4941 63.947 47.24 64.171 47.0128C64.8382 46.3366 65.6072 45.8075 66.4565 45.3808C67.3294 44.9423 68.2339 44.6517 69.2178 44.6468C69.6355 44.6449 69.6372 44.647 69.7208 45.037C69.748 45.1643 69.7762 45.2934 69.7839 45.4229C69.8576 46.6669 69.4064 47.6833 68.4177 48.5311C68.4241 48.0505 68.1916 47.5982 68.611 47.2443C68.6355 47.2237 68.6378 47.1758 68.6481 47.14C68.7856 46.6639 68.5244 46.1444 68.0645 45.9776C67.5523 45.7918 66.9697 46.0435 66.7545 46.5434C66.5565 47.0036 66.7459 47.5218 67.2085 47.7518C67.3333 47.8138 67.4383 47.8731 67.4544 48.0243C67.4829 48.2929 67.5055 48.5611 67.4728 48.8317C67.4544 48.9848 67.3908 49.0714 67.2315 49.1259C66.0493 49.5313 64.3962 49.0456 63.5813 48.0535C63.4832 47.9349 63.5143 47.8587 63.5802 47.7593Z" fill="#E8C152"/>
<path d="M62.7324 47.5396C62.7724 47.3532 62.8651 47.1898 62.9697 47.0341C63.317 46.5168 63.7696 46.1006 64.264 45.7321C65.3381 44.9315 66.5362 44.3715 67.8177 44.0028C68.4379 43.8243 69.0839 43.7904 69.7277 43.924C69.9433 43.9689 70.1159 44.0608 70.1803 44.2869C70.231 44.4651 70.2117 44.5515 69.9787 44.4978C69.5531 44.3996 69.121 44.3462 68.6786 44.4069C68.0361 44.4954 67.4205 44.6586 66.8215 44.9154C65.5556 45.4585 64.4609 46.2226 63.6034 47.3077C63.4087 47.5542 63.2027 47.7999 63.1387 48.1439C62.7951 48.0453 62.6667 47.8458 62.7324 47.5396Z" fill="#E8C152"/>
<path d="M70.1326 45.2472C70.3512 46.8683 69.3653 48.6206 67.8593 49.2352C66.2591 49.8882 64.8001 49.6458 63.5181 48.469C63.4047 48.3649 63.3018 48.3251 63.15 48.3348C62.7324 48.3612 62.3619 48.0335 62.4663 47.6532C62.5893 47.2048 62.5477 46.8011 62.4072 46.3815C62.3724 46.2774 62.3699 46.1614 62.3598 46.0502C62.1813 44.1022 63.3669 42.3145 65.5369 41.8842C66.9593 41.602 68.1602 42.039 69.1514 43.0685C69.4055 43.3324 69.5858 43.6444 70.0046 43.7172C70.2904 43.767 70.4463 44.0318 70.4575 44.3264C70.4669 44.579 70.2608 44.6842 70.0596 44.769C70.0851 44.9352 70.1115 45.0907 70.1326 45.2472ZM69.7697 45.4027C69.7619 45.2732 69.7338 45.1442 69.7065 45.0168C69.623 44.6269 69.6213 44.6247 69.2036 44.6266C68.2197 44.6314 67.3152 44.9221 66.4422 45.3606C65.5927 45.7873 64.8239 46.3164 64.1567 46.9927C63.9328 47.2196 63.7421 47.4737 63.566 47.7389C63.5001 47.8381 63.4689 47.9146 63.5666 48.0335C64.3816 49.0256 66.0349 49.5114 67.2168 49.1059C67.3759 49.0514 67.4397 48.9646 67.4582 48.8117C67.4908 48.5412 67.4685 48.273 67.4397 48.0043C67.4236 47.8531 67.3186 47.7939 67.1938 47.7318C66.7315 47.502 66.5419 46.9836 66.7399 46.5235C66.955 46.0233 67.5376 45.7716 68.0498 45.9576C68.51 46.1245 68.7709 46.6439 68.6335 47.12C68.6232 47.1559 68.6208 47.2038 68.5963 47.2244C68.1769 47.5783 68.4097 48.0305 68.4031 48.5111C69.3922 47.6631 69.8435 46.6469 69.7697 45.4027ZM68.9874 43.5201C68.3088 42.3983 66.4429 41.6984 64.8688 42.3879C63.1887 43.1239 62.2067 45.2863 62.8548 46.6632C64.5246 44.8772 66.6018 43.8929 68.9874 43.5201ZM63.5894 47.2875C64.4469 46.2024 65.5416 45.4381 66.8075 44.8953C67.4064 44.6384 68.0221 44.4752 68.6646 44.3868C69.107 44.3258 69.5388 44.3793 69.9647 44.4776C70.1977 44.5313 70.217 44.445 70.1663 44.2667C70.1019 44.0408 69.9292 43.9487 69.7136 43.9038C69.0698 43.7702 68.4237 43.8042 67.8037 43.9826C66.5223 44.3513 65.3241 44.9116 64.2499 45.7119C63.7554 46.0804 63.3027 46.4966 62.9557 47.0139C62.8511 47.1698 62.7583 47.333 62.7184 47.5194C62.6527 47.8256 62.7811 48.0251 63.1247 48.1237C63.1885 47.7797 63.3944 47.534 63.5894 47.2875Z" fill="#59304D"/>
<path d="M68.7385 48.885C66.5726 50.4788 65.0254 52.5186 64.2927 55.1413C62.945 54.1135 62.8045 51.472 64.087 49.8818C65.2882 48.3917 67.4917 48.125 68.7385 48.885Z" fill="#E8C152"/>
<path d="M65.548 55.839C65.5858 55.4863 65.6438 55.1374 65.7486 54.7979C66.0606 53.7869 66.5487 52.8689 67.1689 52.011C67.8065 51.1292 68.551 50.3774 69.5207 49.8672C69.9324 49.6507 69.9352 49.652 70.2182 49.9943C70.3106 50.1062 70.4046 50.2194 70.4787 50.3433C71.1906 51.5349 71.2666 52.7709 70.7252 54.1167C70.4847 53.6385 70.0226 53.311 70.2552 52.746C70.2687 52.7132 70.2464 52.6646 70.2382 52.6238C70.1293 52.0827 69.6047 51.7034 69.0642 51.775C68.4625 51.8544 68.0163 52.4022 68.0603 53.0071C68.1009 53.5635 68.5544 53.9784 69.1295 53.9681C69.2847 53.9653 69.419 53.9701 69.5124 54.1111C69.6786 54.362 69.8388 54.6153 69.9453 54.8995C70.0056 55.0601 69.9872 55.1784 69.8579 55.3141C68.898 56.3221 67.0147 56.6913 65.6998 56.1293C65.5424 56.0623 65.5338 55.971 65.548 55.839Z" fill="#E8C152"/>
<path d="M64.5975 56.0573C64.5413 55.8527 64.549 55.6435 64.5724 55.4359C64.6497 54.7463 64.8834 54.1026 65.1827 53.4843C65.8329 52.1415 66.7293 50.9725 67.8062 49.9499C68.3274 49.4549 68.9484 49.0896 69.6532 48.891C69.8894 48.8244 70.1072 48.8268 70.2869 49.017C70.4286 49.1671 70.4538 49.2625 70.1959 49.329C69.7247 49.4506 69.2703 49.6198 68.8645 49.9071C68.275 50.3246 67.7504 50.8022 67.2904 51.3637C66.3183 52.5506 65.6289 53.868 65.339 55.3809C65.2731 55.7245 65.1958 56.0732 65.3094 56.446C64.9192 56.5248 64.6899 56.3936 64.5975 56.0573Z" fill="#E8C152"/>
<path d="M70.7332 49.9907C71.782 51.4806 71.7077 53.7186 70.5352 55.0994C69.2893 56.5665 67.723 57.0765 65.8515 56.5721C65.6859 56.5274 65.5637 56.541 65.4186 56.6286C65.0194 56.8693 64.4851 56.7355 64.3927 56.306C64.2839 55.7997 64.0354 55.4224 63.6811 55.0796C63.5933 54.9946 63.5312 54.8812 63.464 54.7766C62.287 52.9432 62.5404 50.5677 64.4638 49.0278C65.7246 48.0183 67.1359 47.8334 68.6442 48.3417C69.0308 48.4718 69.3694 48.6876 69.8206 48.5446C70.1285 48.4469 70.4188 48.6286 70.5812 48.9142C70.7203 49.1588 70.5707 49.3688 70.4154 49.556C70.5258 49.7068 70.6321 49.847 70.7332 49.9907ZM70.4543 50.3308C70.3802 50.2069 70.2861 50.0938 70.1938 49.9819C69.911 49.6396 69.9082 49.6381 69.4963 49.8548C68.5263 50.365 67.7818 51.1166 67.1445 51.9983C66.5243 52.8562 66.0362 53.774 65.7242 54.7852C65.6194 55.1247 65.5616 55.4737 65.5236 55.8263C65.5094 55.9584 65.5178 56.0496 65.6756 56.1171C66.9905 56.679 68.8738 56.3097 69.8337 55.3017C69.9629 55.166 69.9814 55.0476 69.9211 54.887C69.8146 54.6029 69.6544 54.3493 69.4882 54.0987C69.3945 53.9574 69.2603 53.9529 69.105 53.9557C68.53 53.966 68.0764 53.5511 68.0359 52.9947C67.9916 52.39 68.4381 51.842 69.0398 51.7625C69.5803 51.6912 70.1049 52.0702 70.2138 52.6114C70.2219 52.6522 70.2443 52.7007 70.2307 52.7336C69.9982 53.2986 70.4603 53.6261 70.7008 54.1043C71.2422 52.7585 71.1661 51.5224 70.4543 50.3308ZM68.714 48.8721C67.4672 48.1121 65.2637 48.379 64.0625 49.8689C62.7803 51.4591 62.9205 54.1006 64.2682 55.1284C65.0009 52.5057 66.5481 50.4661 68.714 48.8721ZM65.3148 55.368C65.6048 53.8552 66.2943 52.5377 67.2664 51.3509C67.7264 50.7893 68.251 50.3117 68.8405 49.8943C69.2464 49.6069 69.7007 49.4377 70.1719 49.3162C70.4298 49.2496 70.4047 49.1543 70.2629 49.0042C70.0832 48.8139 69.8655 48.8115 69.6292 48.8781C68.9245 49.0767 68.3034 49.4422 67.7822 49.937C66.7053 50.9596 65.809 52.1287 65.1587 53.4714C64.8594 54.0897 64.6257 54.7335 64.5484 55.4228C64.525 55.6305 64.5173 55.8396 64.5736 56.0443C64.6659 56.3808 64.8952 56.5118 65.2857 56.4327C65.1716 56.0602 65.2489 55.7116 65.3148 55.368Z" fill="#59304D"/>
<path d="M19.7471 39.9405C19.7438 40.2251 19.7462 40.2263 19.6959 40.315C18.965 41.6061 18.514 43.0081 18.1363 44.4288C17.8167 45.6305 17.6613 46.8672 17.5537 48.1082C17.4478 49.3306 17.3931 50.552 17.5204 51.7754C17.6505 53.0241 17.8773 54.2567 18.1255 55.4868C18.4994 57.3402 19.1015 59.1 20.1939 60.6625C20.745 61.4508 21.3306 62.2003 22.1425 62.7629C23.7477 63.8753 25.613 64.0984 27.4591 64.3853C28.6662 64.5727 29.893 64.6088 31.1013 64.801C32.4544 65.016 33.6437 65.5228 34.5228 66.6291C34.9126 67.1196 35.3262 67.5871 35.6964 68.0973C36.4267 69.1044 37.3349 69.94 38.4103 70.5894C40.0956 71.607 41.811 71.7475 43.5834 70.8331C44.7544 70.2288 45.7044 69.3589 46.5364 68.3563C46.9139 67.9012 47.2545 67.414 47.6116 66.9422C48.6417 65.5812 50.0319 64.9288 51.6786 64.7385C53.549 64.5227 55.4267 64.3805 57.2756 63.9854C58.7661 63.667 60.1048 63.0867 61.179 61.9907C61.773 61.3847 62.248 60.681 62.6826 59.9502C63.5107 58.558 63.9702 57.0385 64.2983 55.4657C64.7029 53.5273 65.0138 51.583 64.9554 49.5915C64.9166 48.2639 64.7641 46.9523 64.5378 45.6458C64.218 43.8014 63.6159 42.0536 62.7679 40.388C62.7092 40.2727 62.6102 40.1707 62.6841 39.9704C63.1314 40.4172 63.3824 40.9502 63.6818 41.451C63.7116 41.4259 63.7396 41.4143 63.7443 41.3967C63.7799 41.265 63.8167 41.1332 63.8426 40.9994C64.3204 38.5329 64.4454 36.0326 64.5259 33.5309C64.5882 31.5952 64.3917 29.6681 64.1723 27.7487C63.9571 25.8663 63.5145 24.021 63.1273 22.1678C62.6667 19.9637 61.975 17.8253 61.2992 15.682C60.4959 13.1334 59.6949 10.5838 58.5553 8.15803C58.2757 7.56277 57.9976 6.96557 57.6267 6.43172C57.5009 6.45771 57.4717 6.5378 57.4261 6.60072C56.6477 7.67787 56.0084 8.84328 55.3973 10.0149C53.998 12.697 52.6462 15.4036 51.4469 18.1843C50.2989 20.8456 49.0965 23.4842 48.2693 26.2711C48.0619 26.9701 47.8435 27.6659 47.6245 28.3612C47.5742 28.5205 47.5128 28.7456 47.295 28.6571C46.9014 28.4971 46.4767 28.4647 46.0832 28.3135C45.9697 28.2697 45.841 28.2626 45.7985 28.0797C46.3235 28.0554 46.8102 28.2755 47.3245 28.2289C47.4097 27.875 47.4913 27.5357 47.5858 27.143C43.3114 26.0381 39.0844 26.0396 34.8297 27.1458C34.9111 27.4683 34.994 27.7178 35.0324 27.9742C35.065 28.1928 35.1529 28.2787 35.37 28.2315C35.4698 28.2098 35.5718 28.1868 35.6732 28.1862C35.9869 28.1842 36.2929 28.0152 36.6374 28.108C36.5289 28.3086 36.3526 28.3122 36.2088 28.3569C35.938 28.4411 35.6588 28.4973 35.3846 28.5708C34.9057 28.6992 34.8986 28.7033 34.7455 28.2012C34.2832 26.6858 33.8573 25.1562 33.275 23.6824C31.2175 18.4751 28.9238 13.3767 26.1661 8.49647C25.7585 7.77493 25.3716 7.03901 24.8257 6.3877C24.428 6.95956 24.1394 7.569 23.8546 8.17929C22.4157 11.2639 21.5079 14.5367 20.4656 17.7617C19.731 20.0344 19.245 22.3677 18.7584 24.7013C18.2746 27.0221 18.0044 29.3707 17.9327 31.7363C17.8492 34.4953 17.9915 37.2474 18.409 39.9796C18.4842 40.4722 18.5393 40.973 18.7176 41.5008C19.0294 40.9419 19.3047 40.4338 19.7471 39.9405Z" fill="#FFFDFA"/>
<path d="M65.3708 48.0831C65.1981 46.3849 64.9424 44.7059 64.317 43.1105C64.0707 42.4822 63.9099 41.8899 64.2509 41.2586C64.2612 41.2397 64.2573 41.2135 64.262 41.1912C64.8043 38.6428 64.9265 36.053 65.0119 33.4607C65.0459 32.4303 64.9608 31.403 64.8863 30.375C64.7871 29.0078 64.7038 27.6371 64.4452 26.2909C63.8669 23.2813 63.3129 20.2646 62.3352 17.3481C61.4214 14.6233 60.6582 11.846 59.5096 9.20318C59.0773 8.2085 58.6332 7.21682 58.0315 6.30846C57.7597 5.8983 57.532 5.90582 57.2389 6.29063C56.5092 7.24903 55.9165 8.29633 55.3363 9.34341C53.9132 11.9104 52.6084 14.5402 51.4097 17.2197C50.3423 19.6059 49.2406 21.9797 48.4164 24.4666C48.1701 25.2101 47.9453 25.9608 47.7187 26.6828C43.3696 25.5403 39.0552 25.5393 34.7079 26.6823C34.6852 26.6125 34.6487 26.5067 34.6163 26.3995C34.2177 25.0894 33.8187 23.7782 33.2988 22.5105C31.7123 18.6417 29.9793 14.8404 28.0454 11.1307C27.1784 9.46753 26.2684 7.8342 25.1837 6.30223C24.8927 5.89121 24.6612 5.8998 24.3776 6.32564C23.9771 6.9267 23.6552 7.57157 23.3575 8.22696C21.5917 12.1155 20.363 16.1939 19.2583 20.3008C18.4749 23.2134 17.8558 26.1764 17.6306 29.2045C17.5271 30.5964 17.4057 31.9852 17.4328 33.3821C17.4691 35.2572 17.523 37.1323 17.7936 38.9911C17.9394 39.9929 18.0257 41.0101 18.4049 41.9653C18.4438 42.063 18.4552 42.1524 18.4118 42.2589C17.7566 43.875 17.3413 45.5509 17.1334 47.2832C16.9902 48.4785 16.9123 49.6756 16.9447 50.8778C16.9846 52.3545 17.2318 53.8053 17.5097 55.2538C17.9709 57.6574 18.814 59.8774 20.3956 61.7933C21.4919 63.1213 22.8507 64.0099 24.5 64.4362C26.4185 64.9322 28.3889 65.1087 30.3577 65.2807C31.0762 65.3434 31.7862 65.4661 32.4607 65.7265C33.4126 66.0942 34.0332 66.8404 34.5868 67.6534C35.5789 69.11 36.7534 70.3733 38.3371 71.205C39.9238 72.0382 41.5782 72.1072 43.2536 71.5643C44.2766 71.2327 45.1483 70.6197 45.9392 69.8874C46.7606 69.1268 47.4215 68.2418 48.0638 67.3324C48.5904 66.5866 49.2314 65.9466 50.137 65.658C50.7365 65.4669 51.3535 65.3488 51.979 65.2835C53.5121 65.1233 55.0496 65.017 56.5698 64.7325C58.0691 64.4518 59.509 64.0438 60.7214 63.074C62.1853 61.9033 63.2513 60.4033 63.9047 58.674C65.1925 55.2667 65.7423 51.7354 65.3708 48.0831ZM64.2983 55.4657C63.9702 57.0385 63.5107 58.558 62.6826 59.9502C62.248 60.681 61.773 61.3847 61.179 61.9907C60.1048 63.0867 58.7661 63.667 57.2756 63.9854C55.4267 64.3805 53.549 64.5227 51.6786 64.7385C50.0319 64.9288 48.6417 65.5812 47.6116 66.9422C47.2545 67.414 46.9139 67.9012 46.5364 68.3563C45.7044 69.3589 44.7544 70.2288 43.5834 70.8331C41.811 71.7475 40.0956 71.607 38.4103 70.5894C37.3349 69.94 36.4267 69.1044 35.6964 68.0973C35.3262 67.5871 34.9126 67.1196 34.5228 66.6291C33.6437 65.5228 32.4544 65.016 31.1013 64.801C29.893 64.6088 28.6662 64.5727 27.4591 64.3853C25.613 64.0984 23.7477 63.8753 22.1425 62.7629C21.3306 62.2003 20.745 61.4508 20.1939 60.6625C19.1015 59.1 18.4994 57.3402 18.1255 55.4868C17.8773 54.2567 17.6505 53.0241 17.5204 51.7754C17.3931 50.552 17.4478 49.3306 17.5537 48.1082C17.6613 46.8672 17.8167 45.6305 18.1363 44.4288C18.514 43.0081 18.965 41.6061 19.6959 40.315C19.7462 40.2263 19.7438 40.2251 19.7471 39.9405C19.3047 40.4338 19.0294 40.9419 18.7176 41.5008C18.5393 40.973 18.4842 40.4722 18.409 39.9796C17.9915 37.2474 17.8492 34.4953 17.9327 31.7363C18.0044 29.3707 18.2746 27.0221 18.7584 24.7013C19.245 22.3677 19.731 20.0344 20.4656 17.7617C21.5079 14.5367 22.4157 11.2639 23.8546 8.17929C24.1394 7.569 24.428 6.95956 24.8257 6.3877C25.3716 7.03901 25.7585 7.77493 26.1661 8.49647C28.9238 13.3767 31.2175 18.4751 33.275 23.6824C33.8573 25.1562 34.2832 26.6858 34.7455 28.2012C34.8986 28.7033 34.9057 28.6992 35.3846 28.5708C35.6588 28.4973 35.938 28.4411 36.2088 28.3569C36.3526 28.3122 36.5289 28.3086 36.6374 28.108C36.2929 28.0152 35.9869 28.1842 35.6732 28.1862C35.5718 28.1868 35.4698 28.2098 35.37 28.2315C35.1529 28.2787 35.065 28.1928 35.0324 27.9742C34.994 27.7178 34.9111 27.4683 34.8297 27.1458C39.0844 26.0396 43.3114 26.0381 47.5858 27.143C47.4913 27.5357 47.4097 27.875 47.3245 28.2289C46.8102 28.2755 46.3235 28.0554 45.7985 28.0797C45.841 28.2626 45.9697 28.2697 46.0832 28.3135C46.4767 28.4647 46.9014 28.4971 47.295 28.6571C47.5128 28.7456 47.5742 28.5205 47.6245 28.3612C47.8435 27.6659 48.0619 26.9701 48.2693 26.2711C49.0965 23.4842 50.2989 20.8456 51.4469 18.1843C52.6462 15.4036 53.998 12.697 55.3973 10.0149C56.0084 8.84328 56.6477 7.67787 57.4261 6.60072C57.4717 6.5378 57.5009 6.45771 57.6267 6.43172C57.9976 6.96557 58.2757 7.56277 58.5553 8.15803C59.6949 10.5838 60.4959 13.1334 61.2992 15.682C61.975 17.8253 62.6667 19.9637 63.1273 22.1678C63.5145 24.021 63.9571 25.8663 64.1723 27.7487C64.3917 29.6681 64.5882 31.5952 64.5259 33.5309C64.4454 36.0326 64.3204 38.5329 63.8426 40.9994C63.8167 41.1332 63.7799 41.265 63.7443 41.3967C63.7396 41.4143 63.7116 41.4259 63.6818 41.451C63.3824 40.9502 63.1314 40.4172 62.6841 39.9704C62.6102 40.1707 62.7092 40.2727 62.7679 40.388C63.6159 42.0536 64.218 43.8014 64.5378 45.6458C64.7641 46.9523 64.9166 48.2639 64.9554 49.5915C65.0138 51.583 64.7029 53.5273 64.2983 55.4657Z" fill="#4C1C3C"/>
<path d="M61.1494 30.4418C61.0319 28.8038 60.8743 27.1674 60.6965 25.5337C60.526 23.9459 60.3568 22.3596 60.1218 20.7819C59.7649 18.3901 59.2304 16.0343 58.5226 13.7229C58.2963 12.9835 58.0998 12.2298 57.753 11.5319C57.7086 11.4417 57.6699 11.3356 57.5423 11.3326C57.4077 11.3283 57.3819 11.4472 57.3403 11.5346C57.2758 11.668 57.2256 11.8084 57.1726 11.9474C55.0818 17.4259 53.1487 22.9643 51.128 28.4701C50.9418 28.9803 50.8213 29.5191 50.5291 29.9919C50.5662 30.1367 50.6839 30.2084 50.7971 30.2857C52.1886 31.2488 53.5771 32.216 54.9699 33.1761C56.969 34.5561 58.892 36.0307 60.6432 37.7203C60.7263 37.8006 60.7993 37.8994 60.9327 37.8421C61.0517 37.7905 61.0731 37.6786 61.0989 37.5612C61.2767 36.74 61.2421 35.9004 61.2909 35.0706C61.3815 33.5257 61.261 31.9824 61.1494 30.4418Z" fill="#ED5F77"/>
<path d="M31.7022 29.6237C30.7004 26.855 29.7047 24.085 28.7014 21.3151C27.5594 18.1609 26.4258 15.0027 25.2163 11.8729C25.1418 11.6779 25.1504 11.3369 24.871 11.3512C24.626 11.3641 24.5859 11.6794 24.5098 11.8857C23.9582 13.3831 23.5267 14.9194 23.1514 16.4713C22.6856 18.4002 22.3259 20.3492 22.1039 22.3224C21.9563 23.6379 21.7785 24.9492 21.6409 26.2662C21.5234 27.4011 21.4532 28.5418 21.3456 29.6782C21.208 31.1256 21.1607 32.5757 21.1637 34.0274C21.1637 34.6664 21.1478 35.3085 21.1695 35.9476C21.1867 36.4492 21.2425 36.9494 21.2999 37.448C21.317 37.597 21.3213 37.7847 21.5105 37.8463C21.6782 37.9037 21.7528 37.7547 21.8457 37.6615C22.4017 37.0997 23.0051 36.5882 23.6083 36.0779C26.0689 33.9973 28.8002 32.2905 31.4226 30.4319C31.8785 30.1094 31.8813 30.1223 31.7022 29.6237Z" fill="#ED5F77"/>
<path d="M60.3511 26.2732C59.9715 26.2932 59.7363 26.0611 59.6605 25.6213C59.5961 25.2558 59.758 25.0267 60.1935 24.8948C60.2478 25.3705 60.2994 25.8203 60.3511 26.2732Z" fill="#E8C152"/>
<path d="M59.924 22.5647C59.537 22.546 59.239 22.2737 59.1758 21.8983C59.1028 21.4727 59.2274 21.2764 59.7176 21.0915C59.7893 21.5987 59.8553 22.0802 59.924 22.5647Z" fill="#E8C152"/>
<path d="M59.2978 18.6067C58.63 18.2857 58.491 17.6537 58.9841 17.1637C59.0899 17.6494 59.1889 18.1023 59.2978 18.6067Z" fill="#E8C152"/>
<path d="M23.4307 17.1736C23.948 17.6191 23.8033 18.3155 23.1284 18.5893C23.2316 18.1066 23.3289 17.6494 23.4307 17.1736Z" fill="#E8C152"/>
<path d="M22.6898 21.1244C23.0824 21.1918 23.2746 21.3853 23.2817 21.7061C23.2903 22.106 23.0036 22.4613 22.5251 22.5945C22.5236 22.0789 22.6527 21.6073 22.6898 21.1244Z" fill="#E8C152"/>
<path d="M22.2155 24.9348C22.5823 24.9562 22.7859 25.1783 22.7672 25.5195C22.7414 26.0025 22.4891 26.2904 22.0764 26.2818C22.1225 25.8319 22.1683 25.3834 22.2155 24.9348Z" fill="#E8C152"/>
<path d="M50.5291 29.9919C50.8205 29.5184 50.9407 28.9803 51.128 28.4701C53.1483 22.9645 55.0814 17.427 57.1726 11.9474C57.2256 11.8084 57.2758 11.668 57.3403 11.5346C57.3819 11.4472 57.4077 11.3283 57.5423 11.3326C57.6699 11.3356 57.7086 11.4417 57.753 11.5319C58.0998 12.2298 58.2963 12.9835 58.5226 13.7229C59.2311 16.0356 59.766 18.3905 60.1218 20.7819C60.3565 22.3598 60.5245 23.947 60.6965 25.5337C60.8743 27.1674 61.0319 28.8038 61.1494 30.4418C61.261 31.9824 61.3815 33.5257 61.2909 35.0706C61.2421 35.9004 61.2767 36.74 61.0989 37.5612C61.0731 37.6786 61.0517 37.7905 60.9327 37.8421C60.7987 37.9005 60.727 37.8013 60.6432 37.7203C58.8918 36.0318 56.9692 34.5556 54.9699 33.1761C53.5771 32.216 52.1886 31.2488 50.7971 30.2857C50.6843 30.2069 50.5654 30.1367 50.5291 29.9919ZM57.542 11.9186C55.4175 18.0257 53.1808 23.9914 51.037 29.9653C54.3488 32.321 57.8385 34.3862 60.7066 37.2852C61.0839 36.3685 60.8552 29.3293 60.3719 26.7337C59.7502 26.6804 59.4379 26.4191 59.3211 25.8541C59.1867 25.2034 59.3598 24.9208 60.1532 24.5222C60.0929 24.0009 60.0317 23.4711 59.9711 22.9469C59.162 22.7532 58.8569 22.4652 58.8266 21.8788C58.7924 21.2152 58.9307 21.0256 59.6744 20.7559C59.5752 20.1821 59.4742 19.6004 59.3746 19.0184C59.3542 18.8988 59.2629 18.902 59.1719 18.8782C58.696 18.7528 58.446 18.4137 58.3818 17.9494C58.3279 17.5592 58.4156 17.1931 58.7729 16.9592C58.8936 16.8802 58.9159 16.7971 58.885 16.6736C58.4896 15.1039 58.0808 13.5378 57.542 11.9186ZM59.7176 21.0915C59.2274 21.2764 59.1028 21.4727 59.1758 21.8983C59.239 22.2737 59.537 22.546 59.924 22.5647C59.8563 22.0798 59.7885 21.599 59.7176 21.0915ZM60.1935 24.8948C59.7582 25.0271 59.597 25.2569 59.6605 25.6213C59.7376 26.0621 59.971 26.2939 60.3511 26.2732C60.2994 25.8203 60.2478 25.3705 60.1935 24.8948ZM59.2978 18.6067C59.1883 18.103 59.0905 17.6501 58.9846 17.1628C58.4905 17.6537 58.6293 18.2863 59.2978 18.6067Z" fill="#4C1C3C"/>
<path d="M21.1637 34.0274C21.1599 32.5768 21.2077 31.1251 21.3456 29.6782C21.4532 28.5418 21.5234 27.4011 21.6409 26.2662C21.7777 24.95 21.9561 23.6375 22.1039 22.3224C22.3259 20.3492 22.6856 18.4002 23.1514 16.4713C23.5265 14.9203 23.9571 13.3844 24.5098 11.8857C24.5859 11.6794 24.6271 11.3635 24.871 11.3512C25.1504 11.3369 25.1418 11.6779 25.2163 11.8729C26.4258 15.0027 27.5594 18.1609 28.7014 21.3151C29.7036 24.0837 30.7011 26.8546 31.7022 29.6237C31.8824 30.1216 31.8781 30.109 31.4226 30.4319C28.8002 32.2905 26.0689 33.9973 23.6083 36.0779C23.0051 36.5882 22.4017 37.0997 21.8457 37.6615C21.7534 37.7549 21.6795 37.9028 21.5105 37.8463C21.322 37.7834 21.3168 37.5968 21.2999 37.448C21.2425 36.9494 21.1867 36.4492 21.1695 35.9476C21.148 35.3087 21.1637 34.6675 21.1637 34.0274ZM31.3874 29.9675C29.2355 23.9744 26.9988 18.0147 24.8797 11.9137C24.3282 13.6011 23.8871 15.2231 23.5013 16.8658C24.0091 17.1184 24.1105 17.5573 24.0261 18.0355C23.9501 18.4663 23.6924 18.7912 23.2326 18.8775C23.0404 18.9136 23.0396 19.0506 23.017 19.1773C22.9232 19.7039 22.8381 20.2319 22.7501 20.7576C23.4381 21.0078 23.6602 21.2781 23.6219 21.8109C23.5768 22.4405 23.2487 22.7646 22.4578 22.9463C22.393 23.4792 22.3273 24.0191 22.2622 24.5536C22.9206 24.7842 23.1766 25.0907 23.1446 25.591C23.0999 26.2896 22.7862 26.6224 22.0105 26.7586C21.7208 30.2471 21.2677 33.7381 21.6598 37.3342C24.5818 34.3948 28.0705 32.3174 31.3874 29.9675ZM22.5251 22.5945C23.0044 22.4605 23.2905 22.107 23.2817 21.7061C23.2746 21.3853 23.0824 21.1918 22.6898 21.1244C22.6527 21.6073 22.5236 22.0789 22.5251 22.5945ZM22.0764 26.2818C22.4891 26.2904 22.7414 26.0025 22.7672 25.5195C22.7859 25.1783 22.5823 24.9562 22.2155 24.9348C22.1693 25.3829 22.1225 25.8317 22.0764 26.2818ZM23.4307 17.1736C23.3296 17.6483 23.2312 18.1066 23.1284 18.5893C23.8022 18.3162 23.9482 17.6187 23.4307 17.1736Z" fill="#4C1C3C"/>
<path d="M60.6793 48.2199C59.3953 49.4021 57.882 50.0512 56.1422 50.1558C54.9557 50.2275 53.7663 50.2374 52.5811 50.3551C50.9289 50.5198 49.523 51.2078 48.3666 52.3584C47.2001 53.5178 46.3633 54.9035 45.8331 56.4684C45.4906 57.4772 45.2958 58.5146 45.1437 59.5636C45.045 60.2631 44.923 60.9595 44.9962 61.6716C45.0076 61.7875 44.9805 61.908 45.1281 61.9466C45.2614 61.981 45.3458 61.8921 45.4147 61.7991C45.5883 61.5655 45.8217 61.4023 46.0538 61.2346C46.8864 60.6354 47.8192 60.2343 48.7594 59.8445C50.082 59.2957 51.4864 59.0277 52.8491 58.6136C54.927 57.9816 56.7914 56.9614 58.3534 55.4481C59.7462 54.101 60.5545 52.4145 61.0317 50.5501C61.2795 49.5799 61.4502 48.6026 61.4773 47.5536C61.1377 47.7228 60.9243 47.9936 60.6793 48.2199ZM46.8434 59.3358C46.7487 59.4103 46.68 59.6096 46.4822 59.4634C46.2845 59.3158 46.458 59.1982 46.4994 59.0792C47.0182 57.5732 47.7591 56.1688 48.5801 54.8146C49.576 53.1753 51.1222 52.294 52.9537 51.884C53.9467 51.662 54.9598 51.7451 55.9631 51.8123C57.3417 51.904 58.587 51.5587 59.7177 50.7762C59.7462 50.7562 59.7778 50.7418 59.8093 50.7302C59.8293 50.7231 59.8538 50.7259 59.9526 50.7189C59.6603 51.5858 59.3408 52.3898 58.8477 53.122C57.7815 54.704 56.2152 55.5911 54.5041 56.2774C53.1772 56.8104 51.7713 57.0772 50.4015 57.4654C49.0948 57.8369 47.9139 58.4904 46.8434 59.3358Z" fill="#DB394F"/>
<path d="M37.4457 61.6746C37.4356 61.2075 37.457 60.7417 37.384 60.2732C37.1878 59.0122 37.0228 57.7482 36.6131 56.5302C36.0758 54.931 35.2216 53.5165 34.0336 52.3286C32.4973 50.791 30.5557 50.2679 28.4377 50.2348C27.4331 50.2192 26.4229 50.2191 25.4283 50.0542C23.8518 49.7948 22.5363 49.0325 21.413 47.9147C21.2827 47.7857 21.1781 47.6038 20.9144 47.5808C20.9502 47.7713 21.0033 47.9132 21.0003 48.0552C20.9831 48.8764 21.1736 49.6645 21.3671 50.4513C21.9273 52.7254 23.0006 54.6815 24.8665 56.1576C26.4113 57.3799 28.1366 58.2428 30.0353 58.7472C31.6461 59.1756 33.2582 59.5899 34.7672 60.3206C35.6012 60.7248 36.428 61.1446 37.0615 61.8511C37.1403 61.94 37.2262 61.9701 37.3338 61.9342C37.4628 61.8895 37.4472 61.7764 37.4457 61.6746ZM35.8407 59.5336C35.5886 59.3459 35.3335 59.1567 35.0768 58.969C33.7328 57.9874 32.2008 57.4615 30.5958 57.0948C29.0681 56.7452 27.598 56.2377 26.2151 55.4741C24.4926 54.5211 23.3145 53.1353 22.6656 51.2868C22.604 51.112 22.5438 50.9372 22.488 50.7753C22.604 50.6723 22.6671 50.7523 22.7244 50.794C24.0872 51.7771 25.6262 51.9231 27.2385 51.7786C29.5084 51.575 31.476 52.253 33.1167 53.8479C33.3488 54.0714 33.5537 54.3207 33.7171 54.5958C34.5784 56.0619 35.388 57.5522 35.9654 59.1584C36.0256 59.3259 36.0142 59.4404 35.8407 59.5336Z" fill="#DB394F"/>
<path d="M41.1934 64.9286C41.9873 64.9805 42.7649 65.0769 43.51 65.3578C44.2236 65.6269 44.5932 66.2651 44.3849 66.8801C44.2927 67.152 44.1248 67.3629 43.859 67.481C43.6925 67.5548 43.5227 67.6242 43.3487 67.677C42.653 67.8888 42.0137 68.2085 41.4528 68.6724C41.2782 68.8169 41.1281 68.8128 40.9668 68.6743C40.3658 68.1585 39.6571 67.8529 38.9109 67.6199C38.5523 67.508 38.2349 67.347 38.0727 66.9746C37.8028 66.3542 38.1541 65.6514 38.8896 65.366C39.6318 65.078 40.4113 64.985 41.1934 64.9286Z" fill="#DB394F"/>
<path d="M25.8627 39.0661C25.8427 38.3836 26.1865 37.8167 26.5531 37.2723C27.4226 35.9815 28.2532 35.7412 30.7743 36.0206C30.7438 35.8048 30.7156 35.5963 30.6849 35.3882C30.4148 33.5491 31.6766 32.4887 33.3374 32.6932C34.7483 32.8669 35.8806 33.5459 36.6801 34.7296C37.1124 35.3695 37.2636 36.0908 37.092 36.8512C36.9694 37.3943 36.609 37.7497 36.0818 37.9226C35.3146 38.174 34.5393 38.1184 33.9387 37.5996C33.4553 37.1819 32.9442 37.0634 32.3649 37.031C32.1952 37.0215 32.0384 36.9094 31.8314 36.9828C32.0612 37.3067 32.3397 37.5745 32.6067 37.8515C33.0913 38.3544 33.6196 38.8217 34.0579 39.362C35.3837 40.9959 35.7438 42.8238 35.0058 44.8203C34.7221 45.5876 34.8003 46.2737 35.236 46.9692C35.6633 47.6512 36.1265 48.2989 36.6659 48.894C36.7941 49.0355 36.918 49.1811 37.0454 49.3264C36.9084 49.454 36.8332 49.3479 36.7593 49.2962C35.7651 48.6004 35.0015 47.7017 34.4302 46.6353C34.106 46.0302 34.2131 45.4196 34.4073 44.8068C34.5997 44.1993 34.8359 43.6036 34.8434 42.9499C34.8572 41.7342 34.3905 40.699 33.6376 39.7846C33.0486 39.0689 32.4179 38.3875 31.8065 37.69C31.7312 37.6039 31.639 37.5236 31.5916 37.4233C31.1595 36.5066 30.2853 36.4179 29.4564 36.3549C27.6727 36.2197 26.4043 37.2384 26.0128 39.0315C26.0087 39.0502 25.9838 39.0643 25.9688 39.0805C25.9333 39.0757 25.8981 39.071 25.8627 39.0661ZM33.9035 36.9884C34.3349 37.3913 34.8503 37.6116 35.4088 37.6322C36.0936 37.6576 36.6372 37.3211 36.7772 36.7374C36.9466 36.032 36.7789 35.3804 36.3565 34.7985C35.6734 33.8573 34.7234 33.303 33.6114 33.0677C32.9193 32.9212 32.221 33.002 31.6427 33.5075C30.8808 34.1734 30.995 35.3405 31.272 36.0891C31.2894 36.1359 31.3412 36.1879 31.388 36.2029C31.8587 36.3541 32.3425 36.4282 32.8519 36.4685C32.4312 35.3055 32.5044 34.7759 33.1025 34.5103C33.6821 34.2528 34.4788 34.5464 34.8127 35.1406C35.1915 35.8157 34.9731 36.2598 33.9035 36.9884ZM32.9359 35.3871C32.9464 35.7487 33.3108 36.4101 33.4991 36.4095C33.9108 36.4082 34.558 35.8898 34.5554 35.5632C34.5524 35.1629 34.0401 34.7515 33.5543 34.7592C33.1862 34.765 32.9256 35.0298 32.9359 35.3871Z" fill="#EACCD2"/>
<path d="M51.61 36.0423C53.0479 35.7513 54.4193 35.6214 55.5001 36.819C56.0782 37.4594 56.5231 38.1727 56.5738 39.1548C56.387 39.013 56.3947 38.8747 56.3524 38.7573C55.9467 37.6329 55.3034 36.7018 54.0813 36.396C53.1564 36.1645 52.2472 36.4211 51.3648 36.7234C51.3178 36.7395 51.278 36.7952 51.248 36.8409C50.6177 37.8045 49.803 38.6136 49.0424 39.4674C48.2716 40.3326 47.744 41.3088 47.5879 42.4719C47.4981 43.1404 47.677 43.7616 47.8776 44.3824C48.0247 44.8379 48.1907 45.2859 48.1858 45.7785C48.1823 46.1077 48.1194 46.4115 47.9611 46.6982C47.3942 47.7249 46.6536 48.5991 45.6939 49.2805C45.6301 49.3258 45.5571 49.3589 45.4858 49.3922C45.4708 49.399 45.4441 49.3812 45.4156 49.3724C45.3887 49.2075 45.5287 49.1398 45.6157 49.0471C46.2677 48.3515 46.8262 47.592 47.3008 46.7616C47.6326 46.1811 47.6854 45.6138 47.4777 44.9919C47.2903 44.4305 47.1228 43.8643 47.065 43.2681C46.9422 42.0022 47.336 40.8802 48.0039 39.8378C48.5025 39.0594 49.2195 38.4725 49.8509 37.8111C50.1008 37.5493 50.3712 37.305 50.6177 36.941C50.0819 37.0125 49.6185 37.1274 49.1413 37.1048C49.0241 37.0992 48.9646 37.2382 48.8817 37.3131C48.148 37.9773 47.3135 38.2251 46.3493 37.9241C45.695 37.7198 45.3028 37.1716 45.2837 36.4896C45.236 34.7946 46.2595 33.8319 47.6152 33.1278C48.4185 32.7106 49.2801 32.5074 50.1938 32.7632C51.1814 33.0398 51.7417 33.7737 51.7522 34.8006C51.7552 35.2018 51.753 35.6003 51.61 36.0423ZM49.5805 36.4593C49.7448 36.5098 49.8949 36.4219 50.0525 36.4091C51.15 36.3195 51.3339 36.1144 51.3392 35.0031C51.3395 34.946 51.3392 34.8887 51.3386 34.8316C51.3266 33.8186 50.6183 33.1005 49.6108 33.0312C48.632 32.9637 47.7964 33.3213 47.0266 33.8607C46.2541 34.4023 45.6746 35.091 45.5863 36.0833C45.5395 36.6103 45.6333 37.0902 46.1169 37.4031C46.7895 37.8382 48.0397 37.5899 48.4971 36.9631C47.5469 36.4232 47.2514 35.8739 47.563 35.2271C47.8645 34.6011 48.6513 34.2591 49.262 34.4884C49.8936 34.7255 49.967 35.1792 49.5805 36.4593ZM49.4789 35.3691C49.4781 35.0074 49.2223 34.7596 48.8495 34.7592C48.3513 34.7585 47.8991 35.132 47.8924 35.5494C47.8866 35.9111 48.4495 36.3848 48.9139 36.4091C49.1119 36.4194 49.4798 35.7425 49.4789 35.3691Z" fill="#EACCD2"/>
<path d="M44.5534 56.7507C44.4617 56.2484 44.612 55.7986 44.6971 55.3482C45.1489 52.9588 46.2653 50.9162 47.913 49.1364C48.7482 48.2345 49.6587 47.4182 50.5673 46.5973C51.6975 45.576 52.6595 44.4183 53.4059 43.0918C53.8071 42.3787 54.0592 41.6142 54.0229 40.7726C53.9894 39.9933 53.6342 39.3858 53.0499 39.1788C52.3537 38.9323 51.6141 39.1438 51.1241 39.7771C50.4678 40.6253 50.1642 41.6138 50.109 42.6722C50.0901 43.0326 50.1943 43.3951 50.3587 43.726C50.6085 44.2282 51.173 44.3421 51.5843 43.9678C52.0934 43.5044 52.4181 42.9338 52.469 42.2408C52.5115 41.6632 52.259 41.2264 51.7425 40.9481C51.6485 40.8974 51.5102 40.8673 51.5471 40.711C51.5832 40.5585 51.7084 40.5422 51.8405 40.5295C52.1211 40.5027 52.3584 40.5873 52.5607 40.7806C53.0286 41.2274 53.2082 41.7813 53.0823 42.404C52.8815 43.3985 52.3477 44.1535 51.2993 44.3311C50.6605 44.4393 50.2587 44.2639 50.0139 43.6965C49.7261 43.0298 49.6825 42.3497 49.8253 41.6518C50.0152 40.7232 50.2937 39.828 51.0264 39.1659C51.7045 38.5533 52.4763 38.3901 53.3428 38.7461C54.1442 39.0753 54.4234 39.7644 54.5589 40.528C54.7878 41.8178 54.363 42.9692 53.6928 44.0369C52.9299 45.2521 51.9025 46.226 50.7936 47.1277C49.2784 48.3597 47.8802 49.7123 46.7979 51.3543C46.0815 52.4413 45.6819 53.6752 45.2217 54.8801C45.0224 55.4019 44.8586 55.9336 44.7389 56.4784C44.7166 56.5802 44.7112 56.6809 44.5534 56.7507Z" fill="#EACCD2"/>
<path d="M37.823 56.746C37.6967 56.6302 37.6909 56.4911 37.6531 56.3633C36.9773 54.0907 36.2397 51.8484 34.6272 50.0209C33.5483 48.7982 32.3447 47.7124 31.0936 46.6684C29.8373 45.62 28.734 44.4269 28.1402 42.8584C27.7799 41.9064 27.6685 40.9386 28.0196 39.9469C28.4943 38.6054 30.0197 38.1328 31.1756 38.9808C32.0187 39.5993 32.3333 40.5158 32.562 41.4701C32.7207 42.1319 32.7106 42.7903 32.5081 43.4603C32.2371 44.3571 31.4471 44.5192 30.7429 44.2407C29.768 43.855 29.1485 42.6879 29.3479 41.6646C29.4749 41.0138 30.0371 40.4967 30.5731 40.5282C30.7105 40.5364 30.8316 40.5639 30.8752 40.7024C30.9231 40.8553 30.7809 40.8869 30.6873 40.9435C30.0358 41.3387 29.8326 41.8521 30.0126 42.6029C30.1309 43.0963 30.3837 43.5112 30.7275 43.8711C31.2312 44.3985 31.913 44.2418 32.1454 43.5505C32.3277 43.0076 32.3571 42.4523 32.2231 41.8961C32.0183 41.0466 31.7644 40.2143 31.1127 39.5806C30.6628 39.1431 30.132 38.9802 29.5084 39.1457C29.0385 39.2703 28.7379 39.555 28.5646 40.006C28.1731 41.0247 28.4527 41.973 28.9088 42.8724C29.6632 44.3597 30.7352 45.6092 31.9822 46.707C33.3082 47.8746 34.5842 49.0894 35.6399 50.5137C36.7832 52.0562 37.4622 53.7961 37.7903 55.6798C37.8313 55.9152 37.8782 56.1494 37.9119 56.3857C37.9286 56.5035 37.9774 56.636 37.823 56.746Z" fill="#EACCD2"/>
<path d="M39.4958 46.8999C39.4543 46.4259 39.4397 45.9503 39.3482 45.4815C39.1996 44.72 38.7921 44.0915 38.3274 43.4923C37.6971 42.6797 36.9837 41.9281 36.5119 40.9994C36.3567 40.6936 36.2081 40.3863 36.1037 40.0586C35.8638 39.3055 36.0747 38.6815 36.6627 38.1822C37.2893 37.6498 38.0437 37.3428 38.788 37.0202C39.4017 36.7542 39.5973 36.3476 39.449 35.7036C39.3525 35.2849 39.1773 34.8979 38.9396 34.5502C37.9361 33.0836 36.6135 32.0135 34.9299 31.4129C34.357 31.2084 33.7658 31.2095 33.1714 31.3008C33.0709 31.3162 32.9693 31.3433 32.8188 31.2645C33.0838 31.0504 33.3855 31.028 33.6694 30.983C34.5176 30.8481 35.3001 31.0873 36.0474 31.4558C37.4181 32.1316 38.5707 33.07 39.4021 34.3649C39.7303 34.876 39.9704 35.4273 39.9983 36.0571C40.0262 36.6908 39.7464 37.134 39.2207 37.4392C38.7367 37.7203 38.2372 37.975 37.7529 38.2556C36.5053 38.9789 36.3683 39.455 37.0041 40.7314C37.3484 41.4224 37.815 42.0293 38.2713 42.6452C38.8314 43.4013 39.3332 44.1937 39.4743 45.1471C39.56 45.7256 39.6339 46.3106 39.4958 46.8999Z" fill="#EACCD2"/>
<path d="M42.9186 46.9624C42.727 45.4295 43.0663 44.1202 43.9313 42.9443C44.5066 42.162 45.1225 41.4074 45.5266 40.5104C45.9883 39.4861 45.8543 38.9815 44.894 38.3914C44.4177 38.0987 43.9234 37.8343 43.4277 37.5749C42.5101 37.0947 42.2245 36.4389 42.5265 35.4444C42.8834 34.2694 43.6582 33.3941 44.5757 32.6277C45.471 31.8799 46.4494 31.2832 47.6034 31.0199C48.2332 30.8762 48.848 30.9583 49.4547 31.1449C49.4976 31.1582 49.5638 31.1898 49.5565 31.2658C49.5168 31.3504 49.4369 31.3276 49.3778 31.3154C48.2073 31.0738 47.1574 31.4122 46.1814 32.0176C44.9404 32.7872 43.8521 33.7194 43.2044 35.0717C43.1112 35.266 43.033 35.4711 42.977 35.6789C42.8067 36.3116 43.0169 36.7546 43.6195 37.0116C44.2405 37.2766 44.8577 37.5491 45.421 37.9234C46.417 38.5853 46.6388 39.3654 46.1721 40.467C45.7141 41.5481 44.9788 42.4431 44.2274 43.3193C43.3624 44.3277 42.9124 45.4654 42.9699 46.7976C42.9712 46.829 42.951 46.861 42.9186 46.9624Z" fill="#EACCD2"/>
<path d="M30.709 60.1458C30.6417 60.2137 30.5827 60.1662 30.5224 60.1363C29.5122 59.6364 28.4683 59.7273 27.4105 59.9411C26.4837 60.1286 25.5631 60.3554 24.603 60.3307C22.5206 60.2768 20.8083 59.1367 20.0865 57.2777C19.8739 56.7303 19.7638 56.1593 19.8978 55.5668C20.119 54.5891 20.9129 54.1371 21.8702 54.4734C22.8178 54.8064 23.3605 55.514 23.5437 56.4782C23.6938 57.2676 22.9961 57.8908 22.2084 57.7117C21.9997 57.6642 21.8326 57.5431 21.7224 57.358C21.6514 57.2388 21.5914 57.1098 21.6949 56.9749C21.809 56.8263 21.9206 56.9412 22.0295 56.9831C22.5047 57.1656 22.9271 56.8918 22.9389 56.3915C22.9574 55.5978 22.2148 54.7665 21.4254 54.6974C20.714 54.6351 20.1885 55.1399 20.1975 55.9328C20.2113 57.1327 20.7698 58.075 21.6765 58.8208C22.6609 59.6304 23.8288 59.7835 25.0428 59.6712C26.1775 59.5662 27.2875 59.2499 28.4421 59.295C29.2163 59.3253 29.9153 59.5699 30.5816 59.9384C30.6598 59.9815 30.7485 60.0277 30.709 60.1458Z" fill="#EACCD2"/>
<path d="M51.7045 60.1494C51.6942 59.9852 51.8316 59.9506 51.9332 59.8907C52.9124 59.3128 53.9743 59.2278 55.0796 59.3336C56.1241 59.4335 57.14 59.7427 58.2049 59.7026C60.0715 59.6319 61.5786 58.5442 62.0866 56.8736C62.2058 56.4819 62.229 56.0863 62.1946 55.6877C62.1328 54.9709 61.4879 54.5473 60.7887 54.7465C60.0066 54.9694 59.4913 55.6351 59.5054 56.4043C59.5144 56.8948 59.9113 57.1609 60.3751 56.991C60.4922 56.9481 60.6294 56.8061 60.7292 56.9949C60.8115 57.1504 60.7563 57.3075 60.6455 57.44C60.3721 57.7671 60.0021 57.7916 59.6388 57.6949C59.2409 57.5889 58.9557 57.3265 58.8947 56.889C58.7528 55.8718 59.6671 54.6357 60.7153 54.4227C61.8532 54.1914 62.6482 54.9327 62.5655 56.1482C62.4407 57.987 61.0413 59.6285 59.1996 60.125C58.0402 60.4376 56.8933 60.3376 55.7401 60.0981C55.0381 59.9523 54.3415 59.7741 53.6146 59.7666C53.0563 59.7608 52.5285 59.8593 52.0199 60.0848C51.9237 60.1273 51.834 60.2293 51.7045 60.1494Z" fill="#EACCD2"/>
<path d="M31.152 48.6665C31.0085 48.7365 30.9531 48.6878 30.9029 48.6451C30.2647 48.1041 29.5292 47.6987 28.871 47.1872C27.7818 46.3409 26.9009 45.3447 26.6308 43.9326C26.5668 43.5984 26.4627 43.2673 26.5778 42.9203C26.6226 42.7854 26.6911 42.6864 26.8339 42.6881C26.9793 42.6898 27.042 42.7921 27.0747 42.9319C27.1625 43.3083 27.246 43.6871 27.3631 44.055C27.7831 45.3743 28.6472 46.3778 29.666 47.2744C30.1685 47.7167 30.6443 48.1892 31.152 48.6665Z" fill="#EACCD2"/>
<path d="M51.2782 48.6702C51.7071 48.2611 52.1198 47.8621 52.5383 47.4689C52.9715 47.0622 53.4239 46.6774 53.8161 46.2258C54.6153 45.3052 55.0981 44.2401 55.3205 43.0504C55.3538 42.873 55.3822 42.6795 55.6029 42.6924C55.8346 42.7059 55.8739 42.9099 55.8735 43.1011C55.8705 44.1688 55.5196 45.1149 54.8449 45.9365C54.3787 46.5041 53.8495 47.0055 53.236 47.4189C52.6592 47.8074 52.1003 48.2222 51.5333 48.6257C51.4719 48.6691 51.4238 48.7511 51.2782 48.6702Z" fill="#EACCD2"/>
<path d="M23.3201 57.8994C23.7185 58.1141 24.0936 58.3207 24.536 58.4186C25.273 58.5814 25.9827 58.4884 26.6939 58.3012C26.8537 58.2591 27.0317 58.2196 27.1069 58.4143C27.1881 58.625 27.0538 58.7626 26.8758 58.8507C25.9312 59.3175 23.9991 58.847 23.3547 57.9945C23.3349 57.9687 23.3311 57.9314 23.3201 57.8994Z" fill="#EACCD2"/>
<path d="M59.1228 57.8828C58.9615 58.1708 58.7195 58.3271 58.4828 58.474C57.6174 59.0113 56.6913 59.1829 55.6961 58.8986C55.5699 58.8625 55.4582 58.8172 55.3755 58.7169C55.2963 58.6209 55.2804 58.5077 55.3285 58.3943C55.3843 58.2634 55.5054 58.2558 55.621 58.2767C55.7885 58.3072 55.9521 58.3585 56.1192 58.3928C57.1499 58.6042 58.1382 58.5765 59.0049 57.8727C59.0165 57.8631 59.0461 57.8753 59.1228 57.8828Z" fill="#EACCD2"/>
<path d="M41.2579 44.4617C41.0359 44.3779 41.1097 44.2244 41.0786 44.1142C40.8102 43.1621 40.4301 42.2638 39.8251 41.4712C39.7204 41.334 39.6156 41.2011 39.4644 41.1102C39.2494 40.9809 39.26 40.8278 39.4285 40.6666C40.3371 39.7975 40.7649 38.698 40.9564 37.4849C40.9652 37.4289 40.9809 37.3737 40.9964 37.3192C41.0322 37.1918 41.0307 37.0213 41.2289 37.0443C41.3829 37.0621 41.4052 37.198 41.4331 37.3241C41.5193 37.7132 41.6021 38.1034 41.7009 38.4893C41.9103 39.3064 42.34 40.0026 42.9254 40.5987C43.1455 40.8229 43.164 40.9464 42.9007 41.1646C42.3791 41.5968 42.0995 42.2114 41.8083 42.8073C41.5549 43.3259 41.4203 43.8885 41.2579 44.4617Z" fill="#DB394F"/>
<path d="M23.8709 47.3251C23.8421 47.5716 23.7109 47.7277 23.4588 47.7423C23.2063 47.7569 22.9887 47.5076 23.0145 47.245C23.0377 47.0079 23.1695 46.8677 23.4148 46.8707C23.6738 46.8739 23.8801 47.0873 23.8709 47.3251Z" fill="#DB394F"/>
<path d="M58.5535 47.3115C58.5552 47.0745 58.7684 46.864 59.0205 46.87C59.2898 46.8765 59.3963 47.0418 59.3944 47.2959C59.392 47.5722 59.2336 47.7131 58.9784 47.7408C58.745 47.7662 58.5515 47.5578 58.5535 47.3115Z" fill="#DB394F"/>
<path d="M59.8093 50.7302C59.7778 50.7418 59.7462 50.7562 59.7177 50.7762C58.587 51.5587 57.3417 51.904 55.9631 51.8123C54.9598 51.7451 53.9467 51.662 52.9537 51.884C51.1222 52.294 49.576 53.1753 48.5801 54.8146C47.7591 56.1688 47.0182 57.5732 46.4994 59.0792C46.458 59.1982 46.2845 59.3158 46.4822 59.4634C46.68 59.6096 46.7487 59.4103 46.8434 59.3358C47.9139 58.4904 49.0948 57.8369 50.4015 57.4654C51.7713 57.0772 53.1772 56.8104 54.5041 56.2774C56.2152 55.5911 57.7815 54.704 58.8477 53.122C59.3408 52.3898 59.6603 51.5858 59.9526 50.7189C59.8538 50.7259 59.8293 50.7231 59.8093 50.7302ZM58.461 52.9131C57.1783 54.5509 55.4043 55.4138 53.4985 56.07C52.5154 56.4067 51.4967 56.6118 50.4992 56.8983C49.1994 57.2737 48.0101 57.8655 47.0025 58.7884C46.9725 58.8157 46.9366 58.8385 46.8464 58.9059C47.2791 57.8655 47.7464 56.9225 48.3138 56.0256C48.8498 55.1801 49.3928 54.3532 50.2097 53.7441C51.5654 52.7338 53.0542 52.1649 54.7738 52.2695C55.4803 52.3125 56.1926 52.2996 56.9019 52.2983C57.7403 52.2955 58.487 51.9944 59.1834 51.5531C59.2306 51.5231 59.2794 51.4973 59.3897 51.4342C59.1402 52.0189 58.8091 52.4688 58.461 52.9131Z" fill="#4C1C3C"/>
<path d="M35.9654 59.1584C35.388 57.5522 34.5784 56.0619 33.7171 54.5958C33.5537 54.3207 33.3488 54.0714 33.1167 53.8479C31.476 52.253 29.5084 51.575 27.2385 51.7786C25.6262 51.9231 24.0872 51.7771 22.7244 50.794C22.6671 50.7523 22.604 50.6723 22.488 50.7753C22.5438 50.9372 22.604 51.112 22.6656 51.2868C23.3145 53.1353 24.4926 54.5211 26.2151 55.4741C27.598 56.2377 29.0681 56.7452 30.5958 57.0948C32.2008 57.4615 33.7328 57.9874 35.0768 58.969C35.3335 59.1567 35.5886 59.3459 35.8407 59.5336C36.0142 59.4404 36.0256 59.3259 35.9654 59.1584ZM34.9379 58.38C33.7959 57.5232 32.5032 57.0071 31.1189 56.6833C29.3806 56.2764 27.6882 55.7404 26.1393 54.8176C24.7851 54.0108 23.7834 52.8845 23.0655 51.4801C23.9152 52.0376 24.8367 52.3313 25.847 52.3213C26.4532 52.317 27.0608 52.3041 27.6655 52.274C29.8651 52.1608 31.6751 53.0091 33.1096 54.6113C33.9623 55.5643 34.5855 56.6962 35.1114 57.87C35.2491 58.1766 35.4426 58.4618 35.53 58.8644C35.3004 58.6768 35.1256 58.5204 34.9379 58.38Z" fill="#4C1C3C"/>
<path d="M95 0H98V100H95V0Z" fill="white"/>
</svg>
