<svg width="289" height="82" viewBox="0 0 289 82" fill="none" xmlns="http://www.w3.org/2000/svg">
<path d="M202.561 19.2061L201.51 20.4959V61.3728L202.561 62.6725L236.697 69.5468L238.266 68.252V13.6196L236.697 12.3276L202.561 19.2061ZM235.634 15.2249V66.6282L204.156 60.291V21.5848L235.634 15.2249Z" fill="#AD608E"/>
<path d="M1.33013 19.1899L0 20.496V61.3729L1.33013 62.6889H42.1879L43.5251 61.3729V20.4967L42.1879 19.1906L1.33013 19.1899ZM40.8769 60.064H2.64187V21.8219H40.8762L40.8769 60.064Z" fill="#5B56A6"/>
<path d="M97.2745 5.70459L95.3762 6.89039V74.9834L97.2745 76.1479L124.498 62.5685L125.224 61.3728V20.4967L124.498 19.3279L97.2745 5.70459ZM122.582 60.5585L98.0174 72.8368V9.0278L122.582 21.3174V60.5585Z" fill="#D35972"/>
<path d="M287.158 19.1899H246.269L244.96 20.496V61.3729L246.269 62.6889H287.158L288.461 61.3729V20.4967L287.158 19.1899ZM285.817 60.064H247.595V21.8219H285.817V60.064Z" fill="#5B56A6"/>
<path d="M163.966 19.3269L163.23 20.4957V61.3726L163.969 62.5683L191.185 76.1477L193.093 74.9831V6.89088L191.185 5.70508L163.966 19.3269ZM190.451 9.02758V72.8365L165.883 60.5583V21.3172L190.451 9.02758Z" fill="#D35972"/>
<path d="M142.926 81.8669H145.57V0H142.926V81.8669Z" fill="#F25A55"/>
<path d="M84.3192 39.5133V60.3122L52.8346 66.6374V15.2391L84.3192 21.5898V26.9846H86.954V20.5179L85.8955 19.216L51.7818 12.3276L50.1956 13.6196V68.252L51.7818 69.5581L85.8955 62.6845L86.954 61.3778V32.0476L84.3192 39.5133Z" fill="#AD608E"/>
<path d="M142.926 31.2192V26.6345H137.934L128.107 54.3572H134.075L137.862 43.6199H142.926V39.1653C141.917 39.1724 140.461 39.1562 139.436 39.1562L142.168 31.2426L142.926 31.2192ZM147.733 26.6338H145.593V31.2185C148.062 31.2185 151.073 31.3777 149.717 35.158C148.947 37.3216 147.014 38.4529 145.593 38.7536V43.3411C150.308 42.3372 154.579 39.3592 156.063 35.158C158.546 28.1281 153.878 26.6748 147.733 26.6338ZM6.88132 54.7095L26.7244 26.9847H33.7967L33.7755 54.7095H27.9031L27.976 48.8279H16.7257L12.5641 54.7095H6.88132ZM28.005 44.2269L28.2172 32.4008H28.1373L19.8905 44.2269H28.005ZM107.24 54.7095H101.289L111.105 26.9847H117.062L107.24 54.7095ZM166.833 54.7095L176.642 26.9847H182.606L174.424 50.1036H187.526L185.9 54.7095H166.833ZM214.991 26.9847H233.584L231.957 31.5928H219.322L217.017 38.0807H228.847L227.217 42.6831H215.383L212.76 50.1036H225.821L224.203 54.7095H205.176L214.991 26.9847ZM255.058 54.7095H248.667L263.517 40.3441L259.146 26.9847H266.479L268.768 36.3982L278.08 26.9847H284.459L270.6 40.3108L275.185 54.7095H267.88L265.402 44.2637L255.058 54.7095ZM70.4865 54.7095L67.6954 31.6763L67.5892 31.752L59.4598 54.7095H53.8924L63.7 26.9847H72.5341L75.374 48.7947L75.4788 48.7211L83.1766 26.9847H88.7461L78.9251 54.7102H70.4865V54.7095Z" fill="black"/>
</svg>
