<svg width="135" height="150" viewBox="0 0 135 150" fill="none" xmlns="http://www.w3.org/2000/svg">
<path d="M85.278 149.946C85.278 149.889 85.8212 148.559 86.4844 146.99C87.1476 145.421 87.6908 143.972 87.6908 143.769C87.6908 143.567 86.6045 140.565 85.278 137.1C83.9516 133.633 82.8653 130.674 82.8653 130.522C82.8653 130.34 83.5018 130.248 84.7534 130.248H86.6411L88.1695 135.012C89.0101 137.632 89.7334 139.669 89.7771 139.535C89.8208 139.403 90.4905 137.286 91.2657 134.831L92.6746 130.369L94.6452 130.298C95.7293 130.26 96.6163 130.274 96.6163 130.329C96.6163 130.476 90.4796 146.743 89.7766 148.461L89.1837 149.909L87.2306 149.979C86.1569 150.017 85.278 150.002 85.278 149.946ZM4.78292 144.724C2.85326 144.318 1.48586 143.275 0.518577 141.468C0.067142 140.626 0 140.109 0 137.485C0 134.179 0.263655 133.316 1.72495 131.837C3.31562 130.228 6.59193 129.661 9.70994 130.455L10.9764 130.779V133.918L10.3131 133.748C9.00195 133.409 7.21804 133.255 6.22074 133.393C4.38661 133.648 3.49794 134.984 3.49794 137.485C3.49794 139.916 4.30855 141.199 6.09846 141.601C6.96094 141.795 8.16185 141.679 10.3251 141.194L11.0009 141.043L10.9283 142.557C10.8557 144.068 10.853 144.073 9.95886 144.382C8.74157 144.802 6.01222 144.982 4.78292 144.724ZM28.5632 144.733C26.5287 144.363 25.3426 143.464 24.5685 141.704C24.2192 140.91 24.1286 139.824 24.0505 135.495L23.9561 130.248H27.5943L27.6685 135.174C27.7406 139.969 27.7575 140.117 28.3116 140.706C29.4159 141.88 32.2014 141.68 32.8587 140.38C33.0732 139.956 33.1643 138.364 33.1671 135.012L33.1703 130.248H36.7889V135.15C36.7889 140.764 36.5476 142.052 35.2539 143.346C34.0203 144.58 31.078 145.19 28.5638 144.733L28.5632 144.733ZM60.0687 144.859C59.936 144.805 59.4354 144.697 58.9573 144.617C57.5669 144.385 56.015 143.201 55.2306 141.771C54.6116 140.644 54.5232 140.214 54.4445 137.968C54.3698 135.84 54.4364 135.219 54.86 134.092C55.866 131.42 57.8404 130.157 61.0338 130.142C62.0949 130.137 63.5338 130.278 64.2298 130.455L65.4962 130.779V133.918L64.833 133.748C63.5218 133.409 61.7385 133.255 60.7406 133.393C58.9065 133.648 58.0178 134.984 58.0178 137.485C58.0178 141.341 60.0081 142.429 64.839 141.216L65.4962 141.051V144.182L64.3756 144.465C63.1659 144.769 60.4617 145.016 60.0687 144.859ZM114.328 130.156C112.68 130.152 112.167 130.255 111.009 130.822C108.573 132.013 107.642 133.855 107.642 137.485C107.642 141.708 109.22 144.021 112.574 144.715C113.89 144.988 116.492 144.786 117.604 144.325C119.962 143.348 121.223 140.964 121.223 137.485C121.223 134.708 120.65 133.084 119.203 131.75C117.879 130.529 116.755 130.161 114.328 130.156ZM114.316 133.175C114.458 133.178 114.604 133.187 114.757 133.202C116.762 133.394 117.601 134.659 117.601 137.485C117.601 139.248 117.253 140.414 116.52 141.101C115.678 141.894 113.674 142.038 112.63 141.381C111.656 140.768 111.332 139.785 111.332 137.441C111.332 134.383 112.193 133.126 114.316 133.175ZM14.1692 137.786L14.233 131.092L15.5027 130.671C16.2009 130.44 17.8565 130.179 19.1819 130.092L21.5908 129.934V133.108L20.2043 133.258C19.4406 133.341 18.5721 133.46 18.2741 133.522L17.731 133.635V144.481H14.1053L14.1692 137.786ZM39.6837 138.438C39.6837 131.875 39.7765 131.336 41.0025 130.778C42.984 129.875 48.0475 129.828 49.7495 130.696C52.0007 131.845 52.2283 132.624 52.2283 139.166V144.481H48.851V139.933C48.851 137.38 48.7397 135.067 48.5977 134.659C48.2719 133.725 47.4934 133.384 45.6877 133.384C43.1767 133.384 43.3022 133.079 43.3022 139.182V144.481H39.6837V138.438ZM68.1503 134.71V124.94H72.0101V130.438L72.9146 130.228C74.2045 129.928 75.3383 129.959 76.7723 130.33C78.4934 130.777 79.5988 131.6 80.3854 133.021C81.0459 134.216 81.0535 134.28 81.1387 139.355L81.2249 144.48H77.5583L77.5562 140.199C77.5562 137.844 77.4415 135.51 77.3034 135.013C76.9797 133.846 76.1025 133.384 74.2116 133.384C71.8371 133.384 72.009 132.94 72.009 139.079V144.481H68.1492V134.71H68.1503ZM98.844 137.786L98.9084 131.092L100.178 130.671C100.876 130.44 102.531 130.179 103.857 130.092L106.266 129.934V133.108L104.879 133.258C104.116 133.341 103.248 133.46 102.949 133.522L102.406 133.635V144.481H98.7801L98.844 137.786ZM123.877 134.71V124.94H127.736V144.481H123.877V134.71ZM131.355 134.71V124.94H134.974V144.481H131.355V134.71Z" fill="#3C3A39"/>
<path d="M61.9984 113.431C60.0666 113.251 54.9834 112.37 53.0974 111.889C36.7961 107.727 22.991 96.5643 15.6851 81.638C11.6801 73.4554 10.0108 66.1375 10.0174 56.79C10.0239 47.4316 11.7188 39.9673 15.6589 31.942C18.6104 25.9319 22.0047 21.2232 26.8236 16.4556C35.8381 7.53883 47.2561 2.0179 60.1894 0.32461C64.4177 -0.228903 73.3683 -0.0487654 77.3171 0.669054C85.5303 2.1631 92.9034 5.09715 99.5111 9.50014C113.24 18.6489 122.143 32.6396 124.465 48.7089C124.962 52.1495 125.25 59.3097 124.915 59.9074C124.733 60.2339 124.638 59.8921 124.518 58.4773C123.925 51.4666 120.892 42.9893 116.708 36.6474C103.991 17.371 80.2621 9.19282 58.293 16.514C41.3361 22.1649 28.5922 36.5011 25.0943 53.8603C23.365 62.4441 23.8835 70.8581 26.6555 79.1641C31.5427 93.8131 43.2401 105.515 58.0752 110.597C61.5737 111.796 66.0668 112.795 69.0292 113.033C72.5774 113.318 71.6832 113.588 67.3059 113.554C64.9177 113.536 62.5295 113.48 61.9984 113.431Z" fill="#F78B24"/>
<path d="M74.1811 106.349C55.8436 105.013 40.6499 91.3402 37.4789 73.3199C36.9019 70.0403 36.7911 63.9091 37.2535 60.891C40.003 42.9717 53.7868 29.3762 71.7689 26.8494C75.4136 26.3374 81.9084 26.5164 85.3992 27.2261C88.4354 27.8429 91.8012 28.939 94.4454 30.1705L96.4957 31.1258L94.566 32.0368C87.6013 35.3257 83.3031 43.0186 84.3119 50.3884C85.3223 57.7686 90.4256 63.5603 97.7523 65.6428C100.39 66.3928 104.423 66.3923 107.062 65.6428C110.474 64.6728 113.15 63.087 115.585 60.5913C116.407 59.7485 117.132 59.1458 117.197 59.2512C117.262 59.3571 117.449 60.5187 117.614 61.8331C118.022 65.0751 117.782 71.2429 117.131 74.3227C115.055 84.1303 109.824 92.3631 101.803 98.4458C94.2112 104.203 84.1683 107.076 74.1811 106.349Z" fill="#F78B24"/>
</svg>
