<svg width="300" height="40" viewBox="0 0 300 40" fill="none" xmlns="http://www.w3.org/2000/svg">
<path d="M37.8962 39.7292C36.6234 39.6115 35.3654 39.3675 34.1409 39.0007C29.5731 37.626 26.2615 34.0522 24.9934 29.1296C24.396 26.8101 24.4194 27.3912 24.3746 13.7633L24.3327 1.06973H29.5634V13.184C29.5634 21.1353 29.6045 25.6691 29.6834 26.3768C30.1367 30.4406 32.5729 33.2056 36.8955 34.5621C39.0113 35.2262 40.71 35.2565 42.7677 34.667C46.4896 33.6004 48.7069 31.2728 49.4435 27.6582C49.6676 26.5594 49.6731 26.2287 49.6731 13.801V1.06973H55.2283V13.5266C55.2283 27.0156 55.2261 27.0775 54.6157 29.3455C53.2732 34.3385 49.8272 37.8689 45.0694 39.1274C42.9136 39.6977 40.0738 39.9358 37.8958 39.7292H37.8962ZM170.113 39.724C167.942 39.5151 165.782 38.8759 164.285 37.9993C163.274 37.4075 161.823 36.0643 161.193 35.1362C160.614 34.2848 159.96 32.8645 159.729 31.9564C159.4 30.6639 159.273 28.7592 159.42 27.3086C159.662 24.9006 160.331 23.2511 161.637 21.8412C163.277 20.0698 165.087 19.0403 168.059 18.1881C169.84 17.6778 171.241 17.4382 175.609 16.8993C181.414 16.1823 182.051 16.0868 182.741 15.8287C183.556 15.5239 184.224 14.8536 184.561 14.0029C184.789 13.4259 184.821 13.1585 184.823 11.7912C184.824 10.4754 184.785 10.1072 184.567 9.40246C183.795 6.90375 181.98 5.50682 178.88 5.02463C174.39 4.32616 170.558 5.13759 168.399 7.2441C167.18 8.43291 166.335 10.6672 166.332 12.7078L166.331 13.2911H160.887L160.889 13.0411C160.898 11.9819 161.345 9.68281 161.801 8.34698C162.852 5.27054 165.453 2.60517 168.583 1.39822C171.263 0.364593 174.795 -0.0879672 178.104 0.17831C182.557 0.536433 184.911 1.42859 187.052 3.56955C188.644 5.16166 189.397 6.52193 189.963 8.82621C190.123 9.48135 190.152 10.9342 190.209 21.1238C190.273 32.5601 190.276 32.683 190.506 33.123C191.058 34.1818 192.411 34.4507 193.912 33.8007L194.329 33.62V38.4845L193.412 38.6367C192.287 38.8241 189.816 38.8292 189.016 38.6456C187.654 38.3341 186.519 37.4738 185.942 36.3172C185.616 35.6639 185.335 34.4799 185.332 33.7526C185.33 33.4878 185.286 33.2878 185.233 33.3082C185.179 33.3285 184.838 33.72 184.475 34.1785C182.449 36.7361 180.516 38.1674 177.965 39.0003C175.743 39.7255 172.875 39.9899 170.113 39.724ZM175.006 34.9999C179.201 34.2844 182.301 32.0864 183.886 28.7052C184.699 26.9686 184.8 26.3379 184.856 22.6515C184.883 20.8642 184.882 19.4017 184.854 19.4017C184.826 19.4017 184.584 19.498 184.316 19.6154C183.28 20.0713 180.561 20.5957 176.22 21.1772C169.098 22.1308 165.721 23.8044 164.931 26.7734C164.728 27.5364 164.735 29.1985 164.946 30.0065C165.6 32.5175 167.876 34.487 170.784 35.0577C171.62 35.2214 173.888 35.1906 175.006 34.9999ZM205.44 39.0626C202.115 38.6663 200.273 37.2745 199.608 34.6551C199.244 33.2219 199.222 32.3645 199.22 19.1518L199.218 5.84716H192.774V1.18083H212.106V5.84716H204.551L204.554 18.2629C204.558 30.0547 204.593 31.6557 204.882 32.726C205.158 33.7496 205.915 34.3259 207.235 34.5162C207.904 34.6125 211.085 34.487 211.8 34.3362L212.106 34.2718V39.0318L210.088 39.1052C207.697 39.1914 206.423 39.18 205.439 39.0629L205.44 39.0626ZM0.0414785 25.2628C0.0866605 10.4065 0.0551812 11.139 0.745872 8.84695C2.34057 3.55288 6.76396 0.561616 13.7198 0.0731323C15.8244 -0.0750052 18.7601 0.0960936 20.4252 0.463475L20.6752 0.518286V5.58348L19.6475 5.42793C19.0438 5.33646 17.6573 5.26721 16.2866 5.2598C14.2527 5.24869 13.8049 5.27943 12.7954 5.49793C9.32193 6.24862 7.14097 7.90479 6.10179 10.5809C5.57997 11.9249 5.44554 13.0511 5.47961 15.7972L5.50924 18.2352L11.8147 18.2637L18.1198 18.2926V23.2904H5.56516V38.8448H0L0.0414785 25.2628ZM59.4502 20.0132V1.18083H64.8898L64.9194 3.63917L64.9498 6.09789L65.3342 5.50015C65.8782 4.65466 67.3504 3.21587 68.3844 2.51962C70.0213 1.41674 72.0667 0.603094 74.0517 0.265341C75.0624 0.0931309 78.0885 0.104982 79.4488 0.28608C84.7939 0.997881 88.2915 3.82361 89.501 8.40809C90.1717 10.9501 90.1469 10.3465 90.1928 25.2069L90.2346 38.8448H84.9039L84.8595 26.0402C84.8117 12.2412 84.8161 12.3471 84.2162 10.3468C83.4337 7.7374 81.7027 5.96197 79.1917 5.19277C77.4463 4.65873 74.7087 4.65429 72.8026 5.1824C69.2758 6.15973 66.6293 8.92213 65.5061 12.7989C64.8916 14.9184 64.895 14.8421 64.8946 27.3179L64.8942 38.8448H59.4502V20.0132ZM94.2255 20.0132V1.18083H99.6695V38.8448H94.2255V20.0132ZM104.225 20.0132V1.18083H109.22L109.25 3.75546L109.28 6.33009L109.902 5.50534C111.913 2.84145 114.214 1.24268 116.999 0.573467C120.531 -0.275361 124.103 0.0423938 126.956 1.45859C128.944 2.44481 130.285 3.72509 131.226 5.53348C131.475 6.01123 131.694 6.40268 131.712 6.40268C131.731 6.40268 131.977 6.05456 132.26 5.62866C134.085 2.88441 136.984 1.07158 140.726 0.333854C141.921 0.0983157 144.706 0.0709103 146.055 0.281266C149.094 0.754935 151.212 1.7819 152.877 3.58844C154.687 5.55348 155.647 8.21292 155.888 11.9341C155.946 12.833 155.995 19.2558 155.996 26.2068L155.998 38.8448H150.554V25.7039C150.554 17.3189 150.513 12.2223 150.44 11.6216C150.072 8.61919 148.886 6.58156 146.983 5.68421C145.946 5.19499 145.159 4.99389 143.68 4.84094C139.108 4.36764 135.667 6.22973 134.058 10.0483C133.596 11.1453 133.389 11.8667 133.092 13.4211C132.855 14.6554 132.849 14.9128 132.809 26.7623L132.768 38.8448H127.339L127.306 24.9291L127.272 11.0135L127.021 10.0691C126.498 8.09589 125.467 6.54452 124.181 5.79272C122.766 4.96649 120.961 4.63281 118.992 4.83427C116.372 5.10166 114.691 5.84383 113.05 7.45816C111.387 9.09397 110.382 11.292 109.818 14.5225C109.659 15.4357 109.63 17.0482 109.59 27.2067L109.545 38.8448H104.224V20.0128L104.225 20.0132ZM216.439 20.0132V1.18083H221.772V38.8448H216.439V20.0132ZM242.882 38.6856C240.665 38.3667 238.723 37.7701 236.826 36.8264C227.316 32.0942 223.36 20.6802 227.9 11.069C231.757 2.90293 240.878 -1.51601 249.768 0.473844C257.208 2.13928 262.915 7.97183 264.549 15.5809C264.854 17.0001 264.97 20.2339 264.773 21.8116C264.502 23.9744 263.854 26.1042 262.863 28.0934C261.799 30.2291 260.727 31.6649 258.84 33.4789C255.992 36.2168 252.79 37.8312 248.714 38.5844C247.453 38.8178 244.193 38.8744 242.882 38.6856ZM247.636 31.1205C248.788 30.8917 250.337 30.1258 251.073 29.4196C251.802 28.7211 252.462 27.7037 252.76 26.8216C252.887 26.4446 252.992 26.0957 252.992 26.0468C252.992 25.9976 249.635 25.9572 245.533 25.9572H238.075L238.142 26.3738C238.25 27.0431 238.953 28.3396 239.58 29.027C240.544 30.0843 241.797 30.7761 243.381 31.1254C244.311 31.3305 246.59 31.3276 247.636 31.1205ZM269.213 20.0132V1.18083H274.541L274.571 3.64214L274.601 6.10344L275.174 5.33239C277.065 2.78998 280.005 1.00344 283.414 0.327188C284.813 0.0494303 288.038 0.0790578 289.769 0.386073C295.034 1.3186 298.215 4.10618 299.319 8.75436C299.927 11.3134 299.914 10.9749 299.959 25.4291L300 38.8448H294.544V26.3513C294.544 12.9929 294.526 12.4693 293.983 10.5179C293.152 7.52741 291.174 5.66088 288.143 5.00648C287.089 4.77909 284.609 4.74576 283.545 4.94464C279.253 5.74791 276.227 8.77214 275.05 13.4329C274.576 15.3143 274.546 16.1694 274.546 27.7945V38.8448H269.213V20.0132Z" fill="#472D8E"/>
</svg>
