<svg width="140" height="150" viewBox="0 0 140 150" fill="none" xmlns="http://www.w3.org/2000/svg">
<path d="M36.1863 131.56H0.198242V60.7733C0.198242 22.3067 25.38 0 56.4111 0C87.343 0 112.624 25.1818 112.624 56.2128C112.624 87.2439 87.4421 112.426 56.4111 112.426V76.3384C67.5148 76.3384 76.6358 67.3166 76.6358 56.1137C76.6358 45.0099 67.614 35.889 56.4111 35.889C45.3073 35.889 36.1863 44.6133 36.1863 62.3595V131.56Z" fill="black"/>
<path d="M106.081 131.46C88.037 131.46 73.4633 116.787 73.4633 98.8429C73.4633 80.7993 88.1361 66.2256 106.081 66.2256C124.124 66.2256 138.698 80.8984 138.698 98.8429H113.219C113.219 94.8773 110.046 91.7048 106.081 91.7048C102.115 91.7048 98.9424 94.8773 98.9424 98.8429C98.9424 102.809 102.115 105.981 106.081 105.981V131.46Z" fill="#E60028"/>
<path d="M4.06477 149.999H0V139.887C0 136.417 2.87508 133.542 6.34501 133.542C9.81494 133.542 12.69 136.417 12.69 139.887C12.69 143.357 9.81494 146.232 6.34501 146.232V142.167C7.5347 142.167 8.52611 141.176 8.52611 139.986C8.52611 138.796 7.5347 137.805 6.34501 137.805C5.15532 137.805 4.16391 138.796 4.16391 139.986V149.999H4.06477Z" fill="black"/>
<path d="M19.6299 146.232C16.16 146.232 13.2849 143.357 13.2849 139.887C13.2849 136.417 16.16 133.542 19.6299 133.542C23.0998 133.542 25.9749 136.417 25.9749 139.887C25.9749 143.456 23.0998 146.232 19.6299 146.232ZM19.6299 137.706C18.4402 137.706 17.4488 138.697 17.4488 139.887C17.4488 141.077 18.4402 142.068 19.6299 142.068C20.8196 142.068 21.811 141.077 21.811 139.887C21.811 138.697 20.8196 137.706 19.6299 137.706Z" fill="black"/>
<path d="M30.6345 146.332H26.5697V139.987C26.5697 136.517 29.4448 133.642 32.9147 133.642C36.3846 133.642 39.2597 136.517 39.2597 139.987V146.232H35.195V139.987C35.195 138.797 34.2035 137.806 33.0139 137.806C31.8242 137.806 30.8328 138.797 30.8328 139.987V146.332H30.6345Z" fill="black"/>
<path d="M52.5446 149.999H48.4798V145.835C47.7859 146.133 46.9927 146.232 46.2987 146.232C42.8288 146.232 39.9537 143.357 39.9537 139.887V133.542H44.0185V139.887C44.0185 141.077 45.0099 142.068 46.1996 142.068C47.3893 142.068 48.3807 141.077 48.3807 139.887V133.542H52.5446V149.999Z" fill="black"/>
<path d="M67.0191 146.232C63.5492 146.232 60.6741 143.357 60.6741 139.887C60.6741 136.417 63.5492 133.542 67.0191 133.542C70.489 133.542 73.3641 136.417 73.3641 139.887H69.2993C69.2993 138.697 68.3079 137.706 67.1182 137.706C65.9285 137.706 64.9371 138.697 64.9371 139.887C64.9371 141.077 65.9285 142.068 67.1182 142.068V146.232H67.0191Z" fill="#E60028"/>
<path d="M86.649 146.332H82.5842V139.888C82.5842 138.698 81.5928 137.706 80.4031 137.706C79.2134 137.706 78.222 138.698 78.222 139.888C78.222 141.077 79.2134 142.069 80.4031 142.069V146.133C76.9332 146.133 74.0581 143.258 74.0581 139.788C74.0581 136.318 76.9332 133.443 80.4031 133.443C83.873 133.443 86.7481 136.318 86.7481 139.788V146.332H86.649Z" fill="black"/>
<path d="M91.4078 146.331H87.343V139.887C87.343 136.417 90.2181 133.542 93.688 133.542C97.158 133.542 100.033 136.417 100.033 139.887V146.232H95.9683V139.887C95.9683 138.697 94.9769 137.706 93.7872 137.706C92.5975 137.706 91.6061 138.697 91.6061 139.887V146.331H91.4078Z" fill="black"/>
<path d="M113.219 149.999H109.154V145.835C108.46 146.133 107.667 146.232 106.973 146.232C103.503 146.232 100.628 143.357 100.628 139.887V133.542H104.693V139.887C104.693 141.077 105.684 142.068 106.874 142.068C108.063 142.068 109.055 141.077 109.055 139.887V133.542H113.12V149.999H113.219Z" fill="black"/>
<path d="M120.258 146.232C116.788 146.232 113.913 143.357 113.913 139.887C113.913 136.417 116.788 133.542 120.258 133.542C123.728 133.542 126.603 136.417 126.603 139.887C126.504 143.456 123.728 146.232 120.258 146.232ZM120.258 137.706C119.068 137.706 118.077 138.697 118.077 139.887C118.077 141.077 119.068 142.068 120.258 142.068C121.447 142.068 122.439 141.077 122.439 139.887C122.439 138.697 121.447 137.706 120.258 137.706Z" fill="black"/>
<path d="M139.788 146.331H135.724V139.887C135.724 138.697 134.732 137.706 133.543 137.706C132.353 137.706 131.362 138.697 131.362 139.887V146.331H127.297V139.887C127.297 136.417 130.172 133.542 133.642 133.542C137.112 133.542 139.987 136.417 139.987 139.887V146.331H139.788Z" fill="black"/>
</svg>
