<svg width="300" height="32" viewBox="0 0 300 32" fill="none" xmlns="http://www.w3.org/2000/svg">
<path d="M38.9005 0C36.2344 0 34.088 2.14634 34.088 4.81243V22.859C34.088 25.5251 36.2344 27.6715 38.9005 27.6715H45.317V31.2808H51.3326V27.6715H58.1502C60.8163 27.6715 62.9626 25.5251 62.9626 22.859V4.81243C62.9626 2.14634 60.8163 0 58.1502 0H38.9005ZM40.1036 4.81243H56.546V22.458H51.3326V19.6507H45.317V22.458H40.1036V4.81243ZM5.6145 0C2.94841 0 0.802071 2.14634 0.802071 4.81243V11.229C0.802071 13.8951 2.94841 16.0414 5.6145 16.0414H24.0621V22.458H0V22.859C0 25.5251 2.14634 27.6715 4.81243 27.6715H24.4632C27.1293 27.6715 29.2756 25.5251 29.2756 22.859V15.6404C29.2756 12.9743 27.1293 10.828 24.4632 10.828H6.01553V4.81243H23.2601V7.21864H28.8746V4.81243C28.8746 2.14634 26.7282 0 24.0621 0H5.6145ZM67.775 0V22.859C67.775 25.5251 69.9214 27.6715 72.5875 27.6715H89.832C92.4981 27.6715 94.6444 25.5251 94.6444 22.859V0H88.6289V22.458H73.7906V0H72.5875H67.775ZM109.683 0.401036L95.8475 27.6715H101.863L104.921 21.6559H120.461L123.519 27.6715H129.535L115.699 0.401036L115.498 0H109.884L109.683 0.401036ZM112.691 6.32874L118.03 16.8435H107.352L112.691 6.32874ZM132.342 0V27.6715H138.357V17.2445H142.167L152.193 27.6715H160.214L150.188 17.2445H153.196C155.862 17.2445 158.008 15.0982 158.008 12.4321V4.81243C158.008 2.14634 155.862 0 153.196 0H137.154H132.342ZM138.357 4.81243H150.388C151.277 4.81243 151.993 5.52787 151.993 6.41657V10.828C151.993 11.7167 151.277 12.4321 150.388 12.4321H138.357V4.81243ZM163.222 0V27.6715H186.482V22.458H169.237V4.81243H186.482V0H163.222Z" fill="black"/>
<path d="M174.451 10.8281H184.476V16.0416H174.451V10.8281Z" fill="#E20A16"/>
<path d="M199.315 0V27.6715H222.575V22.458H205.33V4.81243H222.575V0H199.315Z" fill="black"/>
<path d="M210.544 10.8281H220.57V16.0416H210.544V10.8281Z" fill="#E20A16"/>
<path d="M227.387 0V27.6715H233.002V8.09611L247.439 25.3158L247.84 25.7922L249.419 27.6715H253.455V0H247.439V18.6233L233.002 1.40362L231.824 0H227.387ZM258.267 0H264.684V27.6715H258.267V0ZM267.867 0L279.911 13.3721L267.792 27.6715H275.01L283.633 17.5076L292.781 27.6715H300L287.129 13.3721L298.471 0H291.252L283.407 9.24908L275.086 0H267.867Z" fill="black"/>
</svg>
