<svg width="214" height="50" viewBox="0 0 214 50" fill="none" xmlns="http://www.w3.org/2000/svg">
<g clip-path="url(#clip0_198_146)">
<path d="M34.4797 19.6586L36.4107 6.36559C36.4199 6.30184 36.4116 6.23678 36.3866 6.17743C36.3615 6.11808 36.3207 6.0667 36.2686 6.02884C36.2165 5.99097 36.1551 5.96807 36.0909 5.96261C36.0267 5.95714 35.9622 5.96932 35.9045 5.99783L26.175 10.7991C27.3844 13.3693 28.0632 16.1569 28.1711 18.9953C27.2097 16.3791 25.7405 13.9789 23.8479 11.9327L12.9869 2.86533C12.9358 2.82269 12.8737 2.79534 12.8078 2.7864C12.7419 2.77747 12.6748 2.78733 12.6142 2.81483C12.5536 2.84234 12.5021 2.88639 12.4654 2.94191C12.4288 2.99742 12.4085 3.06216 12.407 3.12867L12.1552 14.2777C16.4524 14.8294 20.4775 16.6837 23.6892 19.5914C26.9009 22.499 29.1452 26.3204 30.1202 30.5417C27.7785 26.1399 23.9606 22.704 19.3372 20.8376C14.7138 18.9711 9.58063 18.7934 4.83924 20.3357L0.212543 22.3469C0.155157 22.3718 0.105423 22.4115 0.0684212 22.462C0.0314192 22.5125 0.00847613 22.5718 0.00193605 22.6341C-0.00460403 22.6963 0.00549336 22.7592 0.0311965 22.8162C0.0568997 22.8733 0.0972873 22.9225 0.148233 22.9588L10.4942 30.337L8.56323 43.63C8.55397 43.6937 8.56231 43.7588 8.58734 43.8181C8.61237 43.8775 8.65314 43.9289 8.70525 43.9667C8.75737 44.0046 8.81883 44.0275 8.88301 44.033C8.9472 44.0384 9.01165 44.0263 9.06941 43.9977L21.1154 38.0535L31.9984 47.139C32.0491 47.1814 32.1107 47.2087 32.1762 47.2178C32.2416 47.2269 32.3083 47.2175 32.3687 47.1906C32.4291 47.1637 32.4807 47.1205 32.5177 47.0657C32.5547 47.011 32.5756 46.947 32.5781 46.8809L33.1084 32.7139L44.7624 27.648C44.8198 27.6231 44.8696 27.5834 44.9066 27.5329C44.9436 27.4825 44.9665 27.4231 44.973 27.3608C44.9796 27.2986 44.9695 27.2358 44.9438 27.1787C44.9181 27.1217 44.8777 27.0725 44.8267 27.0361L34.4797 19.6586Z" fill="black"/>
<path d="M39.4517 34.7942L35.8629 36.8662L35.7769 41.8133L43.3396 37.4469C43.447 37.3849 43.5362 37.2957 43.5983 37.1882C43.6603 37.0807 43.693 36.9588 43.693 36.8348V31.1973L39.4516 33.0409L39.4517 34.7942Z" fill="black"/>
<path d="M14.1296 44.6554L23.3867 50V45.1025L18.7031 42.3984L14.1296 44.6554Z" fill="black"/>
<path d="M39.4516 19.7321L43.6929 22.7567V13.1631C43.6929 13.039 43.6603 12.9171 43.5982 12.8097C43.5362 12.7022 43.4469 12.613 43.3395 12.5509L38.7537 9.90332L38.0973 14.4218L39.4516 15.2038L39.4516 19.7321Z" fill="black"/>
<path d="M30.8546 5.3375L21.6097 0V4.8975L26.2811 7.5945L30.8546 5.3375Z" fill="black"/>
<path d="M5.52182 30.2658L1.28052 27.2412V36.8348C1.28052 36.9589 1.31319 37.0808 1.37524 37.1883C1.43728 37.2957 1.52653 37.385 1.634 37.447L6.2198 40.0946L6.87621 35.5762L5.52181 34.7943L5.52182 30.2658Z" fill="black"/>
<path d="M3.71172 17.7448L1.28052 18.8016V13.1641C1.28052 13.04 1.31318 12.9181 1.37522 12.8107C1.43727 12.7032 1.5265 12.614 1.63397 12.5519L9.31857 8.11523L9.326 13.0084L5.5219 15.2047V16.958L3.8347 17.6915L3.71172 17.7448Z" fill="black"/>
<path d="M124.65 22.3945H122.971V27.1071H124.65C125.547 27.1071 126.408 27.4638 127.043 28.0985C127.678 28.7333 128.035 29.5943 128.035 30.492C128.035 31.3898 127.678 32.2507 127.043 32.8855C126.408 33.5203 125.547 33.8769 124.65 33.8769H111.545L112.723 38.5895H124.65C126.797 38.5895 128.857 37.7364 130.376 36.2178C131.894 34.6993 132.747 32.6396 132.747 30.492C132.747 28.3444 131.894 26.2848 130.376 24.7662C128.857 23.2477 126.797 22.3945 124.65 22.3945Z" fill="black"/>
<path d="M118.76 27.1071H120.147V22.3945H118.76C117.937 22.3945 117.149 22.0678 116.567 21.4863C115.986 20.9048 115.659 20.1161 115.659 19.2938C115.659 18.4714 115.986 17.6827 116.567 17.1012C117.149 16.5197 117.937 16.1931 118.76 16.1931H130.398L130.986 11.4864V11.4805H118.76C116.688 11.4805 114.7 12.3037 113.235 13.769C111.77 15.2343 110.947 17.2217 110.947 19.294C110.947 21.3662 111.77 23.3536 113.235 24.8189C114.7 26.2843 116.687 27.1071 118.76 27.1071Z" fill="black"/>
<path d="M205.19 27.6869C209.902 27.3924 212.848 24.447 212.848 19.4399C212.848 14.4328 209.313 11.782 203.717 11.782L189.874 11.7734V38.3824H194.587V16.1964L203.717 16.2001C206.368 16.2001 207.841 17.3783 207.841 19.44C207.841 21.5017 206.368 23.269 203.635 23.2915L197.414 23.276V27.687H199.888L207.841 38.29H213.142L205.19 27.6869Z" fill="black"/>
<path d="M175.45 11.7812H169.559L158.661 38.2893H163.668L172.504 16.1992L177.099 27.6863H170.987L169.22 32.1042H178.866L181.34 38.2894H186.347L175.45 11.7812Z" fill="black"/>
<path d="M153.24 11.7812V16.1992H160.426V11.7812H153.24Z" fill="black"/>
<path d="M150.41 11.7812H135.683V16.1992H145.697V38.2893H150.409L150.41 11.7812Z" fill="black"/>
<path d="M102.81 15.3736L95.3245 11.0521L93.5023 10V15.4416L100.453 19.4548C100.776 19.6409 101.043 19.9086 101.229 20.231C101.416 20.5534 101.514 20.9191 101.514 21.2913V28.7101C101.514 29.0823 101.416 29.448 101.229 29.7704C101.043 30.0928 100.776 30.3605 100.453 30.5466L93.5023 34.5598V40.0014L95.3245 38.9493L102.81 34.6278C103.847 34.0266 104.709 33.1637 105.308 32.1252C105.908 31.0868 106.224 29.9092 106.226 28.7101V21.2913C106.224 20.0922 105.908 18.9146 105.308 17.8762C104.709 16.8377 103.847 15.9748 102.81 15.3736Z" fill="black"/>
<path d="M90.6776 34.5598L83.7266 30.5466C83.4043 30.3605 83.1366 30.0928 82.9505 29.7704C82.7643 29.448 82.6663 29.0823 82.6663 28.7101V21.2913C82.6663 20.9191 82.7643 20.5534 82.9505 20.231C83.1366 19.9086 83.4043 19.6409 83.7266 19.4548L90.6776 15.4416V10L88.8554 11.0521L81.3703 15.3736C80.3328 15.9748 79.4713 16.8377 78.8717 17.8762C78.2722 18.9146 77.9556 20.0922 77.9537 21.2913V28.7101C77.9557 29.9092 78.2722 31.0868 78.8717 32.1252C79.4713 33.1637 80.3328 34.0266 81.3703 34.6278L88.8554 38.9493L90.6776 40.0014V34.5598Z" fill="black"/>
<path d="M57.0407 11.4863H51.4457L61.7547 28.8643V38.5839H67.0563V28.2749L57.0407 11.4863Z" fill="black"/>
<path d="M66.0807 21.042L71.7682 11.4863H77.3643L68.8228 25.6243L66.0807 21.042Z" fill="black"/>
</g>
<defs>
<clipPath id="clip0_198_146">
<rect width="213.14" height="50" fill="white"/>
</clipPath>
</defs>
</svg>
