<svg width="800" height="800" viewBox="0 0 800 800" fill="none" xmlns="http://www.w3.org/2000/svg">
<path d="M372.6 652.3C375.658 656.741 379.75 660.373 384.523 662.882C389.296 665.39 394.608 666.701 400 666.701C405.392 666.701 410.704 665.39 415.477 662.882C420.25 660.373 424.342 656.741 427.4 652.3L727.4 218.967C730.873 213.969 732.909 208.114 733.288 202.04C733.667 195.966 732.374 189.904 729.55 184.513C726.725 179.122 722.477 174.608 717.268 171.462C712.058 168.316 706.086 166.657 700 166.667H100C93.9281 166.692 87.978 168.372 82.7894 171.525C77.6008 174.679 73.3701 179.188 70.5523 184.566C67.7345 189.945 66.4362 195.99 66.797 202.051C67.1578 208.112 69.1641 213.96 72.6 218.967L372.6 652.3Z" fill="white"/>
</svg>
