<svg width="125" height="125" viewBox="0 0 125 125" fill="none" xmlns="http://www.w3.org/2000/svg">
<g clip-path="url(#clip0_3614_954)">
<path d="M121.583 55.9242L115.538 61.9754C111.691 65.8254 104.728 68.4013 99.2776 67.9122L83.459 66.5473L66.8877 83.1348L70.202 95.0005C71.7428 100.499 69.8591 107.699 65.8197 111.738L55.9124 121.655C53.7252 123.848 50.8051 125.059 47.6879 125.059C44.5746 125.059 41.6544 123.852 39.4633 121.659L3.33746 85.4938C-1.19452 80.9534 -1.19452 73.5689 3.33746 69.0285L69.0079 3.29781C73.5477 -1.23861 80.929 -1.23467 85.461 3.29781L121.583 39.455C123.774 41.6483 124.98 44.5713 124.98 47.6916C124.98 50.8079 123.774 53.7309 121.583 55.9242ZM116.058 44.9855L79.9359 8.82829C78.4462 7.33719 76.0187 7.34508 74.529 8.83224L8.86254 74.5551C7.37684 76.0462 7.37684 78.4761 8.86649 79.9672L44.9884 116.128C46.4189 117.556 48.9608 117.56 50.3873 116.124L60.2947 106.207C62.3084 104.192 63.4434 99.8525 62.6749 97.107L58.9035 83.6003C58.8287 83.4307 58.805 83.2532 58.7577 83.0756L58.6986 82.8705C58.6868 82.8192 58.6986 82.7758 58.6907 82.7246C58.6277 82.3893 58.5883 82.0618 58.6158 81.7226C58.6474 80.4248 59.3055 79.2611 60.405 78.5629L78.3911 60.5592C79.0492 59.3798 80.2906 58.6382 81.7014 58.6263C81.8314 58.6145 81.9575 58.5829 82.0915 58.5869C82.0994 58.5869 82.1073 58.5829 82.1191 58.5829L99.9515 60.1174C102.986 60.3541 107.825 58.6342 110.009 56.4449L116.058 50.3937C117.547 48.9026 117.547 46.4766 116.058 44.9855ZM82.0206 42.8988H89.9023V50.7882H82.0206V42.8988ZM82.0206 27.2422H89.9023V35.1356H82.0206V27.2422ZM66.3793 42.8988H74.261V50.7882H66.3793V42.8988ZM66.3793 27.2422H74.261V35.1356H66.3793V27.2422ZM49.347 88.4641C48.5864 89.2294 47.5854 89.612 46.5844 89.612C45.5874 89.612 44.5864 89.2294 43.8219 88.4641L38.7697 83.407L33.7175 88.4641C32.9569 89.2294 31.956 89.612 30.955 89.612C29.9579 89.612 28.957 89.2294 28.1924 88.4641C26.6673 86.9375 26.6673 84.4602 28.1924 82.9336L33.2446 77.8765L28.1924 72.8194C26.6673 71.2928 26.6673 68.8155 28.1924 67.2889C29.7215 65.7623 32.1924 65.7623 33.7175 67.2889L38.7697 72.346L43.8219 67.2889C45.3509 65.7623 47.8218 65.7623 49.347 67.2889C50.876 68.8155 50.876 71.2928 49.347 72.8194L44.2948 77.8765L49.347 82.9336C50.876 84.4602 50.876 86.9375 49.347 88.4641Z" fill="white"/>
</g>
<defs>
<clipPath id="clip0_3614_954">
<rect width="125" height="125" fill="white"/>
</clipPath>
</defs>
</svg>
