<svg width="125" height="125" viewBox="0 0 125 125" fill="none" xmlns="http://www.w3.org/2000/svg">
<path d="M109.375 62.5002H95.4951L93.7503 36.1147C93.6629 34.7938 93.0758 33.5558 92.1084 32.6522C91.141 31.7486 89.8657 31.2473 88.5419 31.2502H78.1253C78.1253 24.3435 75.3816 17.7197 70.4979 12.8359C65.6141 7.95216 58.9903 5.2085 52.0836 5.2085C45.1769 5.2085 38.5531 7.95216 33.6694 12.8359C28.7856 17.7197 26.042 24.3435 26.042 31.2502H15.6253C14.3015 31.2473 13.0263 31.7486 12.0588 32.6522C11.0914 33.5558 10.5043 34.7938 10.417 36.1147L5.20862 114.24C5.16151 114.952 5.26133 115.666 5.50189 116.339C5.74245 117.011 6.11862 117.626 6.60704 118.147C7.09545 118.668 7.68569 119.082 8.34109 119.365C8.9965 119.648 9.70308 119.793 10.417 119.792H114.584C115.316 119.792 116.04 119.637 116.709 119.339C117.377 119.04 117.975 118.604 118.464 118.058C118.953 117.512 119.321 116.87 119.544 116.173C119.767 115.475 119.841 114.738 119.761 114.011L114.552 67.1356C114.411 65.8612 113.805 64.6836 112.85 63.8283C111.895 62.973 110.657 62.5001 109.375 62.5002ZM52.0836 15.6252C56.2276 15.6252 60.2019 17.2714 63.1322 20.2016C66.0624 23.1319 67.7086 27.1062 67.7086 31.2502H36.4586C36.4586 27.1062 38.1048 23.1319 41.0351 20.2016C43.9653 17.2714 47.9396 15.6252 52.0836 15.6252ZM15.9847 109.375L20.4951 41.6668H26.042V52.0835C26.042 53.4648 26.5907 54.7896 27.5674 55.7663C28.5442 56.7431 29.869 57.2918 31.2503 57.2918C32.6316 57.2918 33.9564 56.7431 34.9331 55.7663C35.9099 54.7896 36.4586 53.4648 36.4586 52.0835V41.6668H67.7086V52.0835C67.7086 53.4648 68.2574 54.7896 69.2341 55.7663C70.2109 56.7431 71.5356 57.2918 72.917 57.2918C74.2983 57.2918 75.623 56.7431 76.5998 55.7663C77.5766 54.7896 78.1253 53.4648 78.1253 52.0835V41.6668H83.6669L88.1826 109.375H15.9847ZM98.6201 109.375L96.193 72.9168H104.714L108.766 109.375H98.6201Z" fill="#505477"/>
</svg>
