<svg width="125" height="125" viewBox="0 0 125 125" fill="none" xmlns="http://www.w3.org/2000/svg">
<path d="M10.417 72.9167V83.3333C10.417 98.0646 10.417 105.43 14.9935 110.007C19.5699 114.583 26.9356 114.583 41.667 114.583H83.3337C98.0649 114.583 105.431 114.583 110.007 110.007C114.584 105.43 114.584 98.0646 114.584 83.3333V62.5C114.584 47.7686 114.584 40.4029 110.007 35.8265C105.431 31.25 98.0649 31.25 83.3337 31.25H41.667C26.9356 31.25 19.5699 31.25 14.9935 35.8265C11.6533 39.1666 10.751 43.9924 10.5072 52.0833" stroke="white" stroke-width="8" stroke-linecap="round"/>
<path d="M46.875 10.4165L62.5 28.6457L78.125 10.4165" stroke="white" stroke-width="8" stroke-linecap="round"/>
<path d="M83.333 31.25V52.0833M83.333 114.583V72.9167" stroke="white" stroke-width="8" stroke-linecap="round"/>
<path d="M104.167 83.3333C104.167 80.4568 101.835 78.125 98.9583 78.125C96.0818 78.125 93.75 80.4568 93.75 83.3333C93.75 86.2099 96.0818 88.5417 98.9583 88.5417C101.835 88.5417 104.167 86.2099 104.167 83.3333Z" fill="white"/>
<path d="M104.167 62.4998C104.167 59.6233 101.835 57.2915 98.9583 57.2915C96.0818 57.2915 93.75 59.6233 93.75 62.4998C93.75 65.3764 96.0818 67.7082 98.9583 67.7082C101.835 67.7082 104.167 65.3764 104.167 62.4998Z" fill="white"/>
</svg>
