<svg width="125" height="125" viewBox="0 0 125 125" fill="none" xmlns="http://www.w3.org/2000/svg">
<g clip-path="url(#clip0_399_255)">
<path d="M109.375 110.937C109.375 106.25 125 96.875 125 86.7188C125 75 114.062 65.625 100.781 61.7188C106.25 55.4688 109.375 48.4375 109.375 39.8437C109.375 17.9687 86.7188 0 57.8125 0C30.4688 0 0 16.4062 0 39.8437C0 56.25 12.5 67.9688 17.9687 72.6563C17.1875 82.0313 13.2813 85.9375 13.2813 85.9375L3.90625 93.75H15.625C28.125 93.75 38.2812 89.8437 44.5312 85.1562C44.5312 85.9375 44.5312 85.9375 44.5312 86.7188C44.5312 102.344 61.7187 114.844 83.5937 114.844C85.1562 114.844 86.7188 114.844 88.2813 114.844C91.4063 118.75 101.562 125.781 114.844 125.781C115.625 125 109.375 121.875 109.375 110.937ZM57.8125 7.8125C82.0312 7.8125 101.562 22.6562 101.562 39.8437C101.562 57.0312 81.25 71.875 56.25 71.875C54.6875 71.875 51.5625 71.875 50 71.875H47.6562L46.875 73.4375C44.5312 76.5625 35.1563 82.8125 22.6563 85.1562C23.4375 82.0312 23.4375 77.3438 23.4375 71.0938V68.75C15.625 62.5 7.03125 51.5625 7.03125 40.625C7.03125 23.4375 32.0313 7.8125 57.8125 7.8125Z" fill="#505477"/>
</g>
<defs>
<clipPath id="clip0_399_255">
<rect width="125" height="125" fill="white"/>
</clipPath>
</defs>
</svg>
