<svg width="125" height="125" viewBox="0 0 125 125" fill="none" xmlns="http://www.w3.org/2000/svg">
<g clip-path="url(#clip0_3614_946)">
<path d="M0.467053 71.7117V71.7078L0.462891 71.6938L0.467053 71.7117Z" fill="white"/>
<path d="M2.44833 76.431L2.41895 76.3955C2.41699 76.3936 2.41699 76.3936 2.41699 76.3936L2.44833 76.431Z" fill="white"/>
<path d="M2.44833 54.6239L2.41895 54.5884C2.41699 54.5884 2.41699 54.5884 2.41699 54.5884L2.44833 54.6239Z" fill="white"/>
<path d="M0.467785 49.9083C0.467785 49.9083 0.467785 49.9024 0.465826 49.8985L0.463867 49.8926L0.467785 49.9083Z" fill="white"/>
<path d="M125 49.9727C125.002 49.4172 124.894 48.8792 124.719 48.3689C124.89 47.8977 124.98 47.4226 124.982 46.9631C124.986 46.2405 124.786 45.5417 124.482 44.9802L124.472 44.9626C124.38 44.7939 124.254 44.6152 124.115 44.4365V30.9434C124.668 30.1482 124.998 29.1921 125 28.1655C125 26.1787 123.803 24.394 121.971 23.6423L76.717 4.73462H76.5854C75.6353 4.40088 74.6499 4.20068 73.6504 4.20068C72.6748 4.20068 71.697 4.39111 70.7568 4.71484H70.6392L4.31323 31.4419L4.14819 31.5342L4.1521 31.54C3.30591 31.9856 2.67969 32.604 2.2478 33.2026C1.49219 34.2529 1.10547 35.3604 0.824463 36.3655L0.82251 36.3792C0.400635 37.9399 0.223877 39.5242 0.115967 40.8652L0.114014 40.877C0.013916 42.2236 0.00805664 43.3623 0.000244141 43.8298V43.8416V44.0911C0.00219727 45.7263 0.0925293 47.8523 0.465576 49.8982L0.471436 49.9199C0.667969 50.9485 0.94458 51.9929 1.41602 53.01L1.42383 53.0256L1.42554 53.0295C1.66528 53.5303 1.97729 54.0662 2.40918 54.5767L2.41895 54.5884C2.4502 54.6257 2.49561 54.6592 2.53101 54.6946C2.44067 54.8005 2.32275 54.9026 2.24805 55.0105C1.49023 56.0588 1.10571 57.1663 0.824707 58.1692L0.822754 58.179V58.1829C0.400879 59.7437 0.224121 61.3298 0.116211 62.6707L0.114258 62.6804C0.0136719 64.0293 0.0078125 65.166 0 65.6353V65.645V65.8962C0.00195313 67.5337 0.0922852 69.6599 0.467285 71.7075L0.471191 71.7231C0.667725 72.7539 0.944336 73.8003 1.41577 74.8171L1.42529 74.8347C1.66309 75.3315 1.9751 75.8674 2.40894 76.3835L2.4187 76.3955C2.49731 76.4897 2.61304 76.5742 2.70532 76.6682C2.55005 76.8391 2.37158 77.0081 2.2478 77.1787C1.48999 78.229 1.10547 79.3364 0.824463 80.3374L0.818603 80.365L0.82251 80.353C0.400635 81.9138 0.223877 83.5002 0.115967 84.8411L0.114014 84.8528C0.013916 86.1995 0.00805664 87.3381 0.000244141 87.8093V87.821V88.0645C0.00219727 89.7036 0.0925293 91.8318 0.467529 93.8796L0.471436 93.8953C0.667969 94.9241 0.94458 95.9705 1.41602 96.9854L1.42554 97.0049C1.66333 97.5037 1.97534 98.0376 2.40918 98.554L2.37793 98.5186L2.41919 98.5676C2.83325 99.0486 3.40259 99.5139 4.11353 99.8613L4.10571 99.873L4.11938 99.8809L4.21948 99.9377L53.0349 120.084L53.1467 120.131C54.2285 120.573 55.3789 120.799 56.5352 120.799C57.6699 120.799 58.8066 120.581 59.8784 120.143L122.356 94.7549V94.7529C123.076 94.4624 123.756 93.9893 124.276 93.2295L124.278 93.2314C124.278 93.2314 124.28 93.2256 124.282 93.2217C124.284 93.2197 124.286 93.2197 124.288 93.2158H124.286C124.778 92.4697 124.979 91.6846 124.983 90.9385C124.987 90.2158 124.786 89.5171 124.482 88.9556L124.472 88.938V88.9399C124.38 88.771 124.254 88.5906 124.115 88.4119V74.9207C124.669 74.1255 124.999 73.1655 125 72.1409C125.002 71.5205 124.871 70.9177 124.649 70.3542C124.873 69.8242 124.981 69.2844 124.983 68.7678C124.987 68.0435 124.786 67.3486 124.482 66.783L124.472 66.7654C124.38 66.5984 124.254 66.4177 124.115 66.239V52.7498C124.668 51.9536 124.998 50.9954 125 49.9727ZM52.8008 114.535L6.31152 95.3464L6.13672 95.1423C5.99145 94.9165 5.80518 94.4866 5.65576 93.9526C5.42432 93.1536 5.26514 92.113 5.16895 91.0608C5.07275 90.0105 5.03931 88.9524 5.03931 88.0649V87.855C5.04712 87.1699 5.07251 85.187 5.35522 83.3218C5.48877 82.3911 5.69507 81.4939 5.94995 80.8579L6.00317 80.7422L52.8003 99.7266V114.535H52.8008ZM52.8008 92.3643L10.4993 74.8997L6.31177 73.176L6.13696 72.9719C5.9917 72.7441 5.80542 72.3162 5.65601 71.7839C5.42456 70.981 5.26538 69.9424 5.16919 68.8904C5.073 67.8401 5.03955 66.782 5.03955 65.8962V65.6843C5.04736 64.9973 5.07275 63.0164 5.35547 61.1492C5.48901 60.2205 5.69531 59.3213 5.9502 58.6873L6.00342 58.5715L52.8005 77.5557V92.3643H52.8008ZM52.8008 56.9558V57.8547V70.5588L10.0498 52.9075L6.31177 51.3701L6.13696 51.1641C5.9917 50.9382 5.80542 50.5083 5.65601 49.9785C5.42456 49.1772 5.26538 48.1389 5.16919 47.0845C5.073 46.0322 5.03955 44.9761 5.03955 44.0908V43.8787C5.04736 43.1936 5.07275 41.2107 5.35547 39.3455C5.48901 38.4148 5.69531 37.5178 5.9502 36.8816L6.00342 36.7678L52.8005 55.7502V56.9558H52.8008ZM119.075 90.6526L58.1445 115.407L57.9834 115.479C57.5142 115.664 57.0254 115.76 56.5347 115.76C56.3599 115.76 56.1814 115.734 56.0085 115.707V100.714C56.2383 100.74 56.4758 100.753 56.7056 100.753C57.6226 100.753 58.5413 100.573 59.3992 100.219L59.458 100.194L119.075 75.8618V90.6526H119.075ZM119.075 68.3975V68.48L58.1445 93.2361L57.9834 93.3069C57.5142 93.4934 57.0254 93.5876 56.5347 93.5876C56.3599 93.5876 56.1814 93.5623 56.0085 93.5386V78.5435C56.2383 78.5688 56.4758 78.5828 56.7056 78.5828C57.6226 78.5828 58.5413 78.4021 59.3992 78.0505L59.458 78.0232L101.272 60.9587L119.075 53.6907V68.3975ZM119.075 46.2268V46.6763L58.1445 71.4307L57.9834 71.5012C57.5142 71.6877 57.0254 71.7839 56.5347 71.7839C56.3599 71.7839 56.1814 71.7583 56.0085 71.7332V58.0259V56.7361C56.2383 56.7637 56.4758 56.7751 56.7056 56.7751C57.6226 56.7751 58.5413 56.5967 59.3992 56.2454L59.458 56.2197L119.075 31.8857V46.2268H119.075Z" fill="white"/>
<path d="M0.467053 93.8841V93.8802L0.462891 93.8682L0.467053 93.8841Z" fill="white"/>
</g>
<defs>
<clipPath id="clip0_3614_946">
<rect width="125" height="125" fill="white"/>
</clipPath>
</defs>
</svg>
